<svg xmlns="http://www.w3.org/2000/svg" xmlns:xlink="http://www.w3.org/1999/xlink" width="500" zoomAndPan="magnify" viewBox="0 0 375 374.999991" height="500" preserveAspectRatio="xMidYMid meet" version="1.0"><defs><clipPath id="a03c7fd1db"><path d="M 96 0 L 351.703125 0 L 351.703125 336 L 96 336 Z M 96 0 " clip-rule="nonzero"/></clipPath><clipPath id="87b0e0470f"><path d="M 23.203125 140 L 257 140 L 257 375 L 23.203125 375 Z M 23.203125 140 " clip-rule="nonzero"/></clipPath></defs><g clip-path="url(#a03c7fd1db)"><path fill="#001f54" d="M 133.332031 66.742188 C 150.300781 65.175781 163.488281 50.550781 163.488281 33.441406 C 163.488281 15.03125 148.46875 0.015625 130.066406 0.015625 C 111.664062 0.015625 96.648438 15.03125 96.648438 33.441406 C 96.648438 39.058594 98.210938 44.804688 100.824219 49.636719 L 112.730469 217.242188 L 235.375 217.277344 L 285.679688 335.175781 L 351.722656 309.265625 L 341.496094 284.910156 L 304.535156 298.253906 L 255.863281 185.859375 L 141.832031 186.625 L 140.269531 165.398438 L 222.8125 165.429688 L 222.8125 134.023438 L 137.121094 133.992188 L 133.332031 66.738281 Z M 133.332031 66.742188 " fill-opacity="1" fill-rule="evenodd"/></g><g clip-path="url(#87b0e0470f)"><path fill="#001f54" d="M 256.675781 307.113281 C 235.976562 348.042969 192.652344 375.007812 146.4375 375.007812 C 78.5625 375.007812 23.203125 319.632812 23.203125 251.734375 C 23.203125 204.066406 52.085938 159.769531 95.183594 140.128906 L 97.972656 176.535156 C 72.480469 192.605469 56.765625 221.597656 56.765625 251.988281 C 56.765625 301.238281 96.925781 341.410156 146.167969 341.410156 C 191.214844 341.410156 229.625 306.828125 234.867188 262.464844 L 256.675781 307.109375 Z M 256.675781 307.113281 " fill-opacity="1" fill-rule="evenodd"/></g></svg>