<svg xmlns="http://www.w3.org/2000/svg" xmlns:xlink="http://www.w3.org/1999/xlink" width="500" zoomAndPan="magnify" viewBox="0 0 375 374.999991" height="500" preserveAspectRatio="xMidYMid meet" version="1.0"><defs><clipPath id="e9be9cd210"><path d="M 162 137 L 184 137 L 184 159 L 162 159 Z M 162 137 " clip-rule="nonzero"/></clipPath><clipPath id="e6e9e170af"><path d="M 0 152.917969 L 281.058594 12.34375 L 374.660156 199.492188 L 93.605469 340.0625 Z M 0 152.917969 " clip-rule="nonzero"/></clipPath><clipPath id="22301380ed"><path d="M 0 152.917969 L 281.058594 12.34375 L 374.660156 199.492188 L 93.605469 340.0625 Z M 0 152.917969 " clip-rule="nonzero"/></clipPath><clipPath id="528a389600"><path d="M 247 165 L 269 165 L 269 187 L 247 187 Z M 247 165 " clip-rule="nonzero"/></clipPath><clipPath id="9ffd9df841"><path d="M 0 152.917969 L 281.058594 12.34375 L 374.660156 199.492188 L 93.605469 340.0625 Z M 0 152.917969 " clip-rule="nonzero"/></clipPath><clipPath id="0f56d33b56"><path d="M 0 152.917969 L 281.058594 12.34375 L 374.660156 199.492188 L 93.605469 340.0625 Z M 0 152.917969 " clip-rule="nonzero"/></clipPath><clipPath id="e2e5ceabb6"><path d="M 10 23 L 364 23 L 364 330 L 10 330 Z M 10 23 " clip-rule="nonzero"/></clipPath><clipPath id="12f1e5c15d"><path d="M 0 152.917969 L 281.058594 12.34375 L 374.660156 199.492188 L 93.605469 340.0625 Z M 0 152.917969 " clip-rule="nonzero"/></clipPath><clipPath id="cf7f03b6ae"><path d="M 0 152.917969 L 281.058594 12.34375 L 374.660156 199.492188 L 93.605469 340.0625 Z M 0 152.917969 " clip-rule="nonzero"/></clipPath><clipPath id="7f4f6b7050"><path d="M 190 109 L 240 109 L 240 215 L 190 215 Z M 190 109 " clip-rule="nonzero"/></clipPath><clipPath id="cb829398b2"><path d="M 0 152.917969 L 281.058594 12.34375 L 374.660156 199.492188 L 93.605469 340.0625 Z M 0 152.917969 " clip-rule="nonzero"/></clipPath><clipPath id="fe019f5585"><path d="M 0 152.917969 L 281.058594 12.34375 L 374.660156 199.492188 L 93.605469 340.0625 Z M 0 152.917969 " clip-rule="nonzero"/></clipPath></defs><g clip-path="url(#e9be9cd210)"><g clip-path="url(#e6e9e170af)"><g clip-path="url(#22301380ed)"><path fill="#ffffff" d="M 182.679688 143.503906 C 182.988281 144.121094 183.234375 144.757812 183.414062 145.421875 C 183.597656 146.082031 183.710938 146.757812 183.761719 147.441406 C 183.808594 148.128906 183.789062 148.8125 183.703125 149.492188 C 183.617188 150.175781 183.464844 150.839844 183.25 151.492188 C 183.03125 152.144531 182.753906 152.769531 182.410156 153.367188 C 182.070312 153.964844 181.675781 154.523438 181.226562 155.042969 C 180.777344 155.558594 180.277344 156.03125 179.734375 156.453125 C 179.191406 156.875 178.613281 157.238281 178 157.546875 C 177.382812 157.851562 176.746094 158.097656 176.082031 158.277344 C 175.417969 158.460938 174.746094 158.574219 174.058594 158.625 C 173.375 158.675781 172.691406 158.65625 172.007812 158.570312 C 171.328125 158.484375 170.660156 158.332031 170.007812 158.117188 C 169.355469 157.898438 168.730469 157.621094 168.132812 157.28125 C 167.539062 156.941406 166.980469 156.546875 166.460938 156.09375 C 165.941406 155.644531 165.472656 155.148438 165.050781 154.605469 C 164.628906 154.0625 164.265625 153.484375 163.957031 152.871094 C 163.648438 152.257812 163.40625 151.617188 163.222656 150.957031 C 163.042969 150.292969 162.925781 149.617188 162.878906 148.933594 C 162.828125 148.25 162.847656 147.566406 162.933594 146.882812 C 163.019531 146.203125 163.171875 145.535156 163.390625 144.882812 C 163.605469 144.230469 163.886719 143.605469 164.226562 143.007812 C 164.566406 142.414062 164.960938 141.855469 165.414062 141.335938 C 165.863281 140.816406 166.359375 140.34375 166.902344 139.925781 C 167.445312 139.503906 168.023438 139.136719 168.640625 138.832031 C 169.253906 138.523438 169.890625 138.277344 170.554688 138.097656 C 171.21875 137.914062 171.890625 137.800781 172.578125 137.75 C 173.261719 137.703125 173.945312 137.71875 174.628906 137.804688 C 175.3125 137.890625 175.976562 138.042969 176.628906 138.261719 C 177.28125 138.476562 177.90625 138.753906 178.503906 139.097656 C 179.101562 139.4375 179.660156 139.832031 180.179688 140.28125 C 180.695312 140.730469 181.167969 141.226562 181.589844 141.769531 C 182.011719 142.3125 182.375 142.890625 182.679688 143.503906 Z M 182.679688 143.503906 " fill-opacity="1" fill-rule="nonzero"/></g></g></g><g clip-path="url(#528a389600)"><g clip-path="url(#9ffd9df841)"><g clip-path="url(#0f56d33b56)"><path fill="#ffffff" d="M 266.9375 171.554688 C 267.246094 172.167969 267.488281 172.804688 267.671875 173.46875 C 267.851562 174.132812 267.964844 174.804688 268.015625 175.492188 C 268.0625 176.175781 268.046875 176.859375 267.960938 177.539062 C 267.875 178.222656 267.722656 178.890625 267.503906 179.542969 C 267.285156 180.191406 267.007812 180.816406 266.667969 181.414062 C 266.328125 182.011719 265.933594 182.570312 265.480469 183.089844 C 265.03125 183.609375 264.535156 184.078125 263.992188 184.5 C 263.449219 184.921875 262.871094 185.285156 262.253906 185.59375 C 261.640625 185.902344 261 186.144531 260.339844 186.328125 C 259.675781 186.507812 259 186.625 258.316406 186.671875 C 257.628906 186.722656 256.945312 186.703125 256.265625 186.617188 C 255.582031 186.53125 254.914062 186.378906 254.265625 186.164062 C 253.613281 185.945312 252.988281 185.667969 252.390625 185.328125 C 251.792969 184.988281 251.234375 184.59375 250.714844 184.144531 C 250.195312 183.691406 249.726562 183.195312 249.304688 182.652344 C 248.882812 182.113281 248.519531 181.53125 248.210938 180.917969 C 247.90625 180.304688 247.660156 179.664062 247.480469 179.003906 C 247.296875 178.339844 247.183594 177.667969 247.132812 176.980469 C 247.085938 176.296875 247.105469 175.613281 247.191406 174.929688 C 247.277344 174.25 247.425781 173.582031 247.644531 172.929688 C 247.863281 172.277344 248.140625 171.652344 248.480469 171.058594 C 248.820312 170.460938 249.21875 169.902344 249.667969 169.382812 C 250.117188 168.863281 250.613281 168.394531 251.15625 167.972656 C 251.699219 167.550781 252.28125 167.1875 252.894531 166.878906 C 253.507812 166.570312 254.148438 166.328125 254.8125 166.144531 C 255.472656 165.964844 256.148438 165.847656 256.832031 165.796875 C 257.519531 165.75 258.203125 165.769531 258.882812 165.855469 C 259.566406 165.941406 260.234375 166.089844 260.886719 166.308594 C 261.539062 166.523438 262.160156 166.804688 262.757812 167.144531 C 263.355469 167.484375 263.914062 167.878906 264.433594 168.328125 C 264.953125 168.777344 265.421875 169.273438 265.84375 169.816406 C 266.265625 170.359375 266.628906 170.9375 266.9375 171.554688 Z M 266.9375 171.554688 " fill-opacity="1" fill-rule="nonzero"/></g></g></g><g clip-path="url(#e2e5ceabb6)"><g clip-path="url(#12f1e5c15d)"><g clip-path="url(#cf7f03b6ae)"><path fill="#ffffff" d="M 312.65625 93.964844 C 316.433594 90.867188 317.566406 85.566406 315.378906 81.195312 L 295.007812 40.460938 C 287.265625 24.980469 268.367188 18.691406 252.878906 26.4375 L 28.179688 138.824219 C 12.691406 146.570312 6.390625 165.464844 14.132812 180.941406 L 34.507812 221.675781 C 36.695312 226.046875 41.613281 228.324219 46.359375 227.15625 C 59.886719 223.832031 69.226562 231.742188 73.117188 239.519531 C 77.007812 247.300781 77.738281 259.523438 66.964844 268.355469 C 63.1875 271.453125 62.054688 276.753906 64.242188 281.125 L 79.65625 311.945312 C 87.398438 327.425781 106.296875 333.714844 121.785156 325.96875 L 346.480469 213.585938 C 361.96875 205.839844 368.269531 186.945312 360.527344 171.464844 L 345.113281 140.640625 C 342.929688 136.273438 338.007812 134 333.261719 135.164062 C 319.734375 138.484375 310.390625 130.574219 306.5 122.792969 C 302.609375 115.011719 301.882812 102.796875 312.65625 93.964844 Z M 98.382812 302.582031 L 86.351562 278.523438 C 97.707031 265.082031 100.050781 246.566406 91.839844 230.152344 C 83.632812 213.742188 67.414062 204.515625 49.847656 205.542969 L 32.859375 171.578125 C 30.277344 166.417969 32.375 160.121094 37.542969 157.539062 L 74.992188 138.808594 L 149.875 288.523438 L 112.425781 307.253906 C 107.257812 309.839844 100.960938 307.738281 98.382812 302.582031 Z M 293.269531 83.792969 C 281.910156 97.230469 279.566406 115.746094 287.773438 132.152344 C 295.984375 148.570312 312.203125 157.800781 329.773438 156.773438 L 341.804688 180.828125 C 344.382812 185.988281 342.289062 192.285156 337.121094 194.871094 L 168.597656 279.160156 L 93.714844 129.441406 L 262.238281 45.152344 C 267.40625 42.570312 273.703125 44.667969 276.28125 49.828125 Z M 293.269531 83.792969 " fill-opacity="1" fill-rule="nonzero"/></g></g></g><g clip-path="url(#7f4f6b7050)"><g clip-path="url(#cb829398b2)"><g clip-path="url(#fe019f5585)"><path fill="#ffffff" d="M 219.535156 116.730469 L 191.445312 200.972656 C 189.613281 206.457031 192.578125 212.375 198.0625 214.203125 C 200.804688 215.117188 203.65625 214.832031 206.050781 213.632812 C 208.449219 212.433594 210.386719 210.324219 211.300781 207.582031 L 239.394531 123.339844 C 241.222656 117.855469 238.261719 111.933594 232.777344 110.109375 C 227.289062 108.28125 221.367188 111.246094 219.535156 116.730469 Z M 219.535156 116.730469 " fill-opacity="1" fill-rule="nonzero"/></g></g></g></svg>