<svg xmlns="http://www.w3.org/2000/svg" xmlns:xlink="http://www.w3.org/1999/xlink" width="500" zoomAndPan="magnify" viewBox="0 0 375 374.999991" height="500" preserveAspectRatio="xMidYMid meet" version="1.0"><defs><g/><clipPath id="f48327c1cb"><path d="M 282.101562 187.5 L 375 187.5 L 375 337.5 L 282.101562 337.5 Z M 282.101562 187.5 " clip-rule="nonzero"/></clipPath></defs><rect x="-37.5" width="450" fill="#ffffff" y="-37.499999" height="449.999989" fill-opacity="1"/><rect x="-37.5" width="450" fill="#ffffff" y="-37.499999" height="449.999989" fill-opacity="1"/><rect x="-37.5" width="450" fill="#ffffff" y="-37.499999" height="449.999989" fill-opacity="1"/><g fill="#001f54" fill-opacity="1"><g transform="translate(33.808596, 223.076909)"><g><path d="M 12.820312 0 L 34.019531 0 L 34.019531 -45.730469 L 48.441406 -45.730469 L 48.441406 -61.632812 L 30.816406 -61.632812 L 30.816406 -71 L 51.523438 -71 L 51.523438 -86.285156 L 34.636719 -86.285156 C 19.105469 -86.285156 12.820312 -78.148438 12.820312 -65.820312 L 12.820312 -61.753906 L 1.601562 -55.589844 L 1.601562 -45.730469 L 12.820312 -45.730469 Z M 12.820312 0 "/></g></g></g><g fill="#001f54" fill-opacity="1"><g transform="translate(85.330386, 223.076909)"><g><path d="M 6.285156 0 L 27.488281 0 L 27.488281 -86.285156 L 6.285156 -86.285156 Z M 6.285156 0 "/></g></g></g><g fill="#001f54" fill-opacity="1"><g transform="translate(119.226296, 223.076909)"><g><path d="M 51.03125 -61.632812 L 51.03125 -32.664062 C 51.03125 -20.832031 46.101562 -15.160156 37.839844 -15.160156 C 30.324219 -15.160156 26.996094 -19.597656 26.996094 -27.855469 L 26.996094 -61.632812 L 5.792969 -61.632812 L 5.792969 -24.160156 C 5.792969 -8.011719 13.066406 1.972656 29.214844 1.972656 C 40.058594 1.972656 47.085938 -3.203125 51.03125 -11.21875 L 51.03125 0 L 72.230469 0 L 72.230469 -61.632812 Z M 51.03125 -61.632812 "/></g></g></g><g fill="#001f54" fill-opacity="1"><g transform="translate(197.741561, 223.076909)"><g><path d="M 2.710938 -19.84375 C 3.203125 -8.503906 11.585938 1.972656 34.144531 1.972656 C 57.070312 1.972656 64.34375 -7.273438 64.34375 -18.984375 C 64.34375 -30.816406 58.304688 -36.730469 43.757812 -38.210938 L 31.0625 -39.445312 C 25.269531 -40.058594 23.789062 -42.402344 23.789062 -44.992188 C 23.789062 -48.441406 26.5 -51.03125 33.652344 -51.03125 C 40.429688 -51.03125 43.757812 -48.195312 44.375 -43.386719 L 63.601562 -43.386719 C 62.371094 -57.808594 50.539062 -63.601562 33.527344 -63.601562 C 17.011719 -63.601562 4.4375 -57.6875 4.4375 -43.019531 C 4.4375 -32.292969 10.847656 -25.886719 22.804688 -24.527344 L 35.871094 -23.050781 C 43.019531 -22.1875 44.128906 -19.597656 44.128906 -16.515625 C 44.128906 -12.941406 41.417969 -10.722656 34.511719 -10.722656 C 26.625 -10.722656 22.433594 -14.792969 21.941406 -19.84375 Z M 2.710938 -19.84375 "/></g></g></g><g fill="#001f54" fill-opacity="1"><g transform="translate(265.286875, 223.076909)"><g><path d="M 49.675781 -63.601562 C 38.703125 -63.601562 31.554688 -58.304688 27.488281 -50.167969 L 27.488281 -86.285156 L 6.285156 -86.285156 L 6.285156 0 L 27.488281 0 L 27.488281 -28.964844 C 27.488281 -41.046875 32.417969 -46.46875 40.921875 -46.46875 C 48.320312 -46.46875 51.648438 -42.03125 51.648438 -33.898438 L 51.648438 0 L 72.847656 0 L 72.847656 -37.472656 C 72.847656 -53.621094 65.820312 -63.601562 49.675781 -63.601562 Z M 49.675781 -63.601562 "/></g></g></g><g clip-path="url(#f48327c1cb)"><path fill="#ffffff" d="M 432.101562 262.5 C 432.101562 263.726562 432.074219 264.953125 432.011719 266.179688 C 431.953125 267.40625 431.863281 268.628906 431.742188 269.851562 C 431.621094 271.074219 431.472656 272.289062 431.289062 273.503906 C 431.109375 274.71875 430.902344 275.929688 430.660156 277.132812 C 430.421875 278.335938 430.152344 279.53125 429.855469 280.722656 C 429.558594 281.914062 429.230469 283.097656 428.875 284.269531 C 428.515625 285.445312 428.132812 286.609375 427.71875 287.765625 C 427.304688 288.921875 426.863281 290.066406 426.394531 291.203125 C 425.921875 292.335938 425.425781 293.457031 424.902344 294.566406 C 424.378906 295.675781 423.824219 296.773438 423.246094 297.855469 C 422.667969 298.9375 422.0625 300.003906 421.433594 301.058594 C 420.800781 302.109375 420.144531 303.148438 419.460938 304.167969 C 418.78125 305.1875 418.074219 306.191406 417.34375 307.175781 C 416.613281 308.164062 415.855469 309.128906 415.078125 310.078125 C 414.300781 311.027344 413.5 311.957031 412.675781 312.867188 C 411.851562 313.777344 411.003906 314.664062 410.136719 315.53125 C 409.269531 316.402344 408.378906 317.246094 407.46875 318.070312 C 406.558594 318.894531 405.632812 319.695312 404.683594 320.476562 C 403.734375 321.253906 402.765625 322.007812 401.78125 322.742188 C 400.792969 323.472656 399.789062 324.179688 398.769531 324.859375 C 397.75 325.542969 396.714844 326.199219 395.660156 326.828125 C 394.609375 327.460938 393.539062 328.066406 392.457031 328.644531 C 391.375 329.222656 390.277344 329.773438 389.167969 330.300781 C 388.058594 330.824219 386.9375 331.320312 385.804688 331.789062 C 384.667969 332.261719 383.523438 332.703125 382.371094 333.117188 C 381.214844 333.527344 380.046875 333.914062 378.875 334.269531 C 377.699219 334.625 376.515625 334.953125 375.324219 335.253906 C 374.136719 335.550781 372.9375 335.820312 371.734375 336.058594 C 370.53125 336.296875 369.320312 336.507812 368.105469 336.6875 C 366.894531 336.867188 365.675781 337.019531 364.453125 337.140625 C 363.230469 337.257812 362.007812 337.347656 360.78125 337.410156 C 359.558594 337.46875 358.328125 337.5 357.101562 337.5 C 355.875 337.5 354.648438 337.46875 353.421875 337.410156 C 352.195312 337.347656 350.972656 337.257812 349.75 337.140625 C 348.53125 337.019531 347.3125 336.867188 346.097656 336.6875 C 344.882812 336.507812 343.675781 336.296875 342.472656 336.058594 C 341.265625 335.820312 340.070312 335.550781 338.878906 335.253906 C 337.6875 334.953125 336.503906 334.625 335.332031 334.269531 C 334.15625 333.914062 332.992188 333.527344 331.835938 333.117188 C 330.679688 332.703125 329.535156 332.261719 328.402344 331.789062 C 327.265625 331.320312 326.144531 330.824219 325.035156 330.300781 C 323.925781 329.773438 322.832031 329.222656 321.746094 328.644531 C 320.664062 328.066406 319.597656 327.460938 318.542969 326.828125 C 317.492188 326.199219 316.457031 325.542969 315.433594 324.859375 C 314.414062 324.179688 313.410156 323.472656 312.425781 322.742188 C 311.4375 322.007812 310.472656 321.253906 309.523438 320.476562 C 308.574219 319.695312 307.644531 318.894531 306.734375 318.070312 C 305.828125 317.246094 304.9375 316.402344 304.070312 315.53125 C 303.203125 314.664062 302.355469 313.777344 301.53125 312.867188 C 300.707031 311.957031 299.90625 311.027344 299.125 310.078125 C 298.347656 309.128906 297.59375 308.164062 296.863281 307.175781 C 296.132812 306.191406 295.425781 305.1875 294.742188 304.167969 C 294.058594 303.148438 293.402344 302.109375 292.773438 301.058594 C 292.140625 300.003906 291.539062 298.9375 290.957031 297.855469 C 290.378906 296.773438 289.828125 295.675781 289.304688 294.566406 C 288.777344 293.457031 288.28125 292.335938 287.8125 291.203125 C 287.34375 290.066406 286.898438 288.921875 286.488281 287.765625 C 286.074219 286.609375 285.6875 285.445312 285.332031 284.269531 C 284.976562 283.097656 284.648438 281.914062 284.351562 280.722656 C 284.050781 279.53125 283.78125 278.335938 283.542969 277.132812 C 283.304688 275.929688 283.09375 274.71875 282.914062 273.503906 C 282.734375 272.289062 282.585938 271.074219 282.464844 269.851562 C 282.34375 268.628906 282.253906 267.40625 282.191406 266.179688 C 282.132812 264.953125 282.101562 263.726562 282.101562 262.5 C 282.101562 261.273438 282.132812 260.046875 282.191406 258.820312 C 282.253906 257.59375 282.34375 256.371094 282.464844 255.148438 C 282.585938 253.925781 282.734375 252.710938 282.914062 251.496094 C 283.09375 250.28125 283.304688 249.070312 283.542969 247.867188 C 283.78125 246.664062 284.050781 245.46875 284.351562 244.277344 C 284.648438 243.085938 284.976562 241.902344 285.332031 240.730469 C 285.6875 239.554688 286.074219 238.390625 286.488281 237.234375 C 286.898438 236.078125 287.34375 234.933594 287.8125 233.796875 C 288.28125 232.664062 288.777344 231.542969 289.304688 230.433594 C 289.828125 229.324219 290.378906 228.226562 290.957031 227.144531 C 291.539062 226.0625 292.140625 224.996094 292.773438 223.941406 C 293.402344 222.890625 294.058594 221.851562 294.742188 220.832031 C 295.425781 219.8125 296.132812 218.808594 296.863281 217.824219 C 297.59375 216.835938 298.347656 215.871094 299.125 214.921875 C 299.90625 213.972656 300.707031 213.042969 301.53125 212.132812 C 302.355469 211.222656 303.203125 210.335938 304.070312 209.46875 C 304.9375 208.597656 305.828125 207.753906 306.734375 206.929688 C 307.644531 206.105469 308.574219 205.304688 309.523438 204.523438 C 310.472656 203.746094 311.4375 202.992188 312.425781 202.257812 C 313.410156 201.527344 314.414062 200.820312 315.433594 200.140625 C 316.457031 199.457031 317.492188 198.800781 318.542969 198.171875 C 319.597656 197.539062 320.664062 196.933594 321.746094 196.355469 C 322.832031 195.777344 323.925781 195.226562 325.035156 194.699219 C 326.144531 194.175781 327.265625 193.679688 328.402344 193.210938 C 329.535156 192.738281 330.679688 192.296875 331.835938 191.882812 C 332.992188 191.46875 334.15625 191.085938 335.332031 190.730469 C 336.503906 190.375 337.6875 190.046875 338.878906 189.746094 C 340.070312 189.449219 341.265625 189.179688 342.472656 188.941406 C 343.675781 188.703125 344.882812 188.492188 346.097656 188.3125 C 347.3125 188.132812 348.53125 187.980469 349.75 187.859375 C 350.972656 187.742188 352.195312 187.652344 353.421875 187.589844 C 354.648438 187.53125 355.875 187.5 357.101562 187.5 C 358.328125 187.5 359.558594 187.53125 360.78125 187.589844 C 362.007812 187.652344 363.230469 187.742188 364.453125 187.859375 C 365.675781 187.980469 366.894531 188.132812 368.105469 188.3125 C 369.320312 188.492188 370.53125 188.703125 371.734375 188.941406 C 372.9375 189.179688 374.136719 189.449219 375.324219 189.746094 C 376.515625 190.046875 377.699219 190.375 378.875 190.730469 C 380.046875 191.085938 381.214844 191.46875 382.371094 191.882812 C 383.523438 192.296875 384.667969 192.738281 385.804688 193.210938 C 386.9375 193.679688 388.058594 194.175781 389.167969 194.699219 C 390.277344 195.226562 391.375 195.777344 392.457031 196.355469 C 393.539062 196.933594 394.609375 197.539062 395.660156 198.171875 C 396.714844 198.800781 397.75 199.457031 398.769531 200.140625 C 399.789062 200.820312 400.792969 201.527344 401.78125 202.257812 C 402.765625 202.992188 403.734375 203.746094 404.683594 204.523438 C 405.632812 205.304688 406.558594 206.105469 407.46875 206.929688 C 408.378906 207.753906 409.269531 208.597656 410.136719 209.46875 C 411.003906 210.335938 411.851562 211.222656 412.675781 212.132812 C 413.5 213.042969 414.300781 213.972656 415.078125 214.921875 C 415.855469 215.871094 416.613281 216.835938 417.34375 217.824219 C 418.074219 218.808594 418.78125 219.8125 419.460938 220.832031 C 420.144531 221.851562 420.800781 222.890625 421.433594 223.941406 C 422.0625 224.996094 422.667969 226.0625 423.246094 227.144531 C 423.824219 228.226562 424.378906 229.324219 424.902344 230.433594 C 425.425781 231.542969 425.921875 232.664062 426.394531 233.796875 C 426.863281 234.933594 427.304688 236.078125 427.71875 237.234375 C 428.132812 238.390625 428.515625 239.554688 428.875 240.730469 C 429.230469 241.902344 429.558594 243.085938 429.855469 244.277344 C 430.152344 245.46875 430.421875 246.664062 430.660156 247.867188 C 430.902344 249.070312 431.109375 250.28125 431.289062 251.496094 C 431.472656 252.710938 431.621094 253.925781 431.742188 255.148438 C 431.863281 256.371094 431.953125 257.59375 432.011719 258.820312 C 432.074219 260.046875 432.101562 261.273438 432.101562 262.5 Z M 432.101562 262.5 " fill-opacity="1" fill-rule="nonzero"/></g><path fill="#5dadec" d="M 335.816406 218.507812 L 325.539062 201.339844 L 316.015625 218.390625 C 313.796875 222.003906 313.605469 226.703125 315.933594 230.59375 C 319.246094 236.125 326.378906 237.898438 331.871094 234.5625 C 337.359375 231.226562 339.125 224.042969 335.816406 218.507812 Z M 335.816406 218.507812 " fill-opacity="1" fill-rule="nonzero"/><g fill="#001f54" fill-opacity="1"><g transform="translate(51.771956, 235.647114)"><g><path d="M 9.8125 -6.5 L 8.578125 -1.441406 L 6.992188 -6.5 L 4.992188 -6.5 L 3.40625 -1.429688 L 2.15625 -6.5 L 0.207031 -6.5 L 1.921875 0 L 4.613281 0 L 5.914062 -4.496094 L 7.226562 0 L 9.902344 0 L 11.621094 -6.5 Z M 9.8125 -6.5 "/></g></g></g><g fill="#001f54" fill-opacity="1"><g transform="translate(63.598337, 235.647114)"><g><path d="M 5.015625 -6.707031 C 3.835938 -6.707031 3.09375 -6.109375 2.675781 -5.226562 L 2.675781 -9.097656 L 0.753906 -9.097656 L 0.753906 0 L 2.675781 0 L 2.675781 -2.949219 C 2.675781 -4.496094 3.25 -5.148438 4.277344 -5.148438 C 5.070312 -5.148438 5.511719 -4.730469 5.511719 -3.691406 L 5.511719 0 L 7.433594 0 L 7.433594 -3.988281 C 7.433594 -5.691406 6.71875 -6.707031 5.015625 -6.707031 Z M 5.015625 -6.707031 "/></g></g></g><g fill="#001f54" fill-opacity="1"><g transform="translate(71.69486, 235.647114)"><g><path d="M 4.015625 -1.117188 C 3.09375 -1.117188 2.484375 -1.519531 2.367188 -2.753906 L 7.316406 -2.753906 C 7.34375 -2.898438 7.34375 -3.082031 7.34375 -3.273438 C 7.34375 -5.109375 6.433594 -6.707031 3.976562 -6.707031 C 1.574219 -6.707031 0.480469 -5.148438 0.480469 -3.261719 C 0.480469 -1.429688 1.441406 0.207031 3.976562 0.207031 C 6.316406 0.207031 7.148438 -0.921875 7.332031 -1.960938 L 5.484375 -1.960938 C 5.304688 -1.480469 4.859375 -1.117188 4.015625 -1.117188 Z M 4.003906 -5.40625 C 4.964844 -5.40625 5.445312 -4.914062 5.511719 -3.925781 L 2.378906 -3.925781 C 2.535156 -5.03125 3.082031 -5.40625 4.003906 -5.40625 Z M 4.003906 -5.40625 "/></g></g></g><g fill="#001f54" fill-opacity="1"><g transform="translate(79.492475, 235.647114)"><g><path d="M 4.613281 -6.601562 C 3.523438 -6.601562 2.9375 -6.03125 2.625 -5.109375 L 2.625 -6.5 L 0.753906 -6.5 L 0.753906 0 L 2.675781 0 L 2.675781 -2.558594 C 2.675781 -4.027344 3.121094 -4.730469 4.40625 -4.730469 L 5.042969 -4.730469 L 5.042969 -6.601562 Z M 4.613281 -6.601562 "/></g></g></g><g fill="#001f54" fill-opacity="1"><g transform="translate(84.833832, 235.647114)"><g><path d="M 4.015625 -1.117188 C 3.09375 -1.117188 2.484375 -1.519531 2.367188 -2.753906 L 7.316406 -2.753906 C 7.34375 -2.898438 7.34375 -3.082031 7.34375 -3.273438 C 7.34375 -5.109375 6.433594 -6.707031 3.976562 -6.707031 C 1.574219 -6.707031 0.480469 -5.148438 0.480469 -3.261719 C 0.480469 -1.429688 1.441406 0.207031 3.976562 0.207031 C 6.316406 0.207031 7.148438 -0.921875 7.332031 -1.960938 L 5.484375 -1.960938 C 5.304688 -1.480469 4.859375 -1.117188 4.015625 -1.117188 Z M 4.003906 -5.40625 C 4.964844 -5.40625 5.445312 -4.914062 5.511719 -3.925781 L 2.378906 -3.925781 C 2.535156 -5.03125 3.082031 -5.40625 4.003906 -5.40625 Z M 4.003906 -5.40625 "/></g></g></g><g fill="#001f54" fill-opacity="1"><g transform="translate(92.631447, 235.647114)"><g/></g></g><g fill="#001f54" fill-opacity="1"><g transform="translate(95.919437, 235.647114)"><g><path d="M 3.71875 0 L 4.9375 0 L 4.9375 -1.535156 L 3.25 -1.535156 L 3.25 -5.042969 L 5.121094 -5.042969 L 5.121094 -6.5 L 3.25 -6.5 L 3.25 -8.046875 L 2.273438 -8.046875 L 1.480469 -6.511719 L 0.144531 -5.964844 L 0.144531 -5.042969 L 1.324219 -5.042969 L 1.324219 -2.339844 C 1.324219 -0.792969 1.871094 0 3.71875 0 Z M 3.71875 0 "/></g></g></g><g fill="#001f54" fill-opacity="1"><g transform="translate(101.377765, 235.647114)"><g><path d="M 4.082031 0.207031 C 6.679688 0.207031 7.679688 -1.457031 7.679688 -3.261719 C 7.679688 -5.042969 6.679688 -6.707031 4.082031 -6.707031 C 1.496094 -6.707031 0.480469 -5.054688 0.480469 -3.261719 C 0.480469 -1.441406 1.496094 0.207031 4.082031 0.207031 Z M 2.417969 -3.25 C 2.417969 -4.691406 2.910156 -5.199219 4.082031 -5.199219 C 5.265625 -5.199219 5.757812 -4.691406 5.757812 -3.25 C 5.757812 -1.808594 5.265625 -1.300781 4.082031 -1.300781 C 2.910156 -1.300781 2.417969 -1.808594 2.417969 -3.25 Z M 2.417969 -3.25 "/></g></g></g><g fill="#001f54" fill-opacity="1"><g transform="translate(109.539267, 235.647114)"><g/></g></g><g fill="#001f54" fill-opacity="1"><g transform="translate(112.827258, 235.647114)"><g><path d="M 5.808594 -6.5 L 5.808594 -5.640625 C 5.367188 -6.304688 4.640625 -6.695312 3.546875 -6.695312 C 1.429688 -6.695312 0.519531 -5.25 0.519531 -3.429688 C 0.519531 -1.652344 1.429688 -0.195312 3.546875 -0.195312 C 4.640625 -0.195312 5.367188 -0.558594 5.808594 -1.222656 L 5.808594 -0.0390625 C 5.808594 0.988281 5.304688 1.390625 4.171875 1.390625 C 3.09375 1.390625 2.636719 0.949219 2.558594 0.285156 L 0.675781 0.285156 C 0.765625 1.742188 1.871094 2.742188 4.09375 2.742188 C 6.734375 2.742188 7.734375 1.730469 7.734375 -0.261719 L 7.734375 -6.5 Z M 4.160156 -1.613281 C 2.9375 -1.613281 2.445312 -2.105469 2.445312 -3.40625 C 2.445312 -4.707031 2.9375 -5.199219 4.160156 -5.199219 C 5.355469 -5.199219 5.808594 -4.640625 5.808594 -3.40625 C 5.808594 -2.183594 5.355469 -1.613281 4.160156 -1.613281 Z M 4.160156 -1.613281 "/></g></g></g><g fill="#001f54" fill-opacity="1"><g transform="translate(121.287668, 235.647114)"><g><path d="M 4.082031 0.207031 C 6.679688 0.207031 7.679688 -1.457031 7.679688 -3.261719 C 7.679688 -5.042969 6.679688 -6.707031 4.082031 -6.707031 C 1.496094 -6.707031 0.480469 -5.054688 0.480469 -3.261719 C 0.480469 -1.441406 1.496094 0.207031 4.082031 0.207031 Z M 2.417969 -3.25 C 2.417969 -4.691406 2.910156 -5.199219 4.082031 -5.199219 C 5.265625 -5.199219 5.757812 -4.691406 5.757812 -3.25 C 5.757812 -1.808594 5.265625 -1.300781 4.082031 -1.300781 C 2.910156 -1.300781 2.417969 -1.808594 2.417969 -3.25 Z M 2.417969 -3.25 "/></g></g></g><g fill="#001f54" fill-opacity="1"><g transform="translate(129.449171, 235.647114)"><g/></g></g><g fill="#001f54" fill-opacity="1"><g transform="translate(132.737161, 235.647114)"><g><path d="M 9.8125 -6.5 L 8.578125 -1.441406 L 6.992188 -6.5 L 4.992188 -6.5 L 3.40625 -1.429688 L 2.15625 -6.5 L 0.207031 -6.5 L 1.921875 0 L 4.613281 0 L 5.914062 -4.496094 L 7.226562 0 L 9.902344 0 L 11.621094 -6.5 Z M 9.8125 -6.5 "/></g></g></g><g fill="#001f54" fill-opacity="1"><g transform="translate(144.563542, 235.647114)"><g><path d="M 5.015625 -6.707031 C 3.835938 -6.707031 3.09375 -6.109375 2.675781 -5.226562 L 2.675781 -9.097656 L 0.753906 -9.097656 L 0.753906 0 L 2.675781 0 L 2.675781 -2.949219 C 2.675781 -4.496094 3.25 -5.148438 4.277344 -5.148438 C 5.070312 -5.148438 5.511719 -4.730469 5.511719 -3.691406 L 5.511719 0 L 7.433594 0 L 7.433594 -3.988281 C 7.433594 -5.691406 6.71875 -6.707031 5.015625 -6.707031 Z M 5.015625 -6.707031 "/></g></g></g><g fill="#001f54" fill-opacity="1"><g transform="translate(152.660065, 235.647114)"><g><path d="M 4.015625 -1.117188 C 3.09375 -1.117188 2.484375 -1.519531 2.367188 -2.753906 L 7.316406 -2.753906 C 7.34375 -2.898438 7.34375 -3.082031 7.34375 -3.273438 C 7.34375 -5.109375 6.433594 -6.707031 3.976562 -6.707031 C 1.574219 -6.707031 0.480469 -5.148438 0.480469 -3.261719 C 0.480469 -1.429688 1.441406 0.207031 3.976562 0.207031 C 6.316406 0.207031 7.148438 -0.921875 7.332031 -1.960938 L 5.484375 -1.960938 C 5.304688 -1.480469 4.859375 -1.117188 4.015625 -1.117188 Z M 4.003906 -5.40625 C 4.964844 -5.40625 5.445312 -4.914062 5.511719 -3.925781 L 2.378906 -3.925781 C 2.535156 -5.03125 3.082031 -5.40625 4.003906 -5.40625 Z M 4.003906 -5.40625 "/></g></g></g><g fill="#001f54" fill-opacity="1"><g transform="translate(160.457679, 235.647114)"><g><path d="M 5.015625 -6.707031 C 3.835938 -6.707031 3.09375 -6.109375 2.675781 -5.226562 L 2.675781 -6.5 L 0.753906 -6.5 L 0.753906 0 L 2.675781 0 L 2.675781 -2.949219 C 2.675781 -4.496094 3.25 -5.148438 4.277344 -5.148438 C 5.070312 -5.148438 5.511719 -4.730469 5.511719 -3.691406 L 5.511719 0 L 7.433594 0 L 7.433594 -3.988281 C 7.433594 -5.691406 6.71875 -6.707031 5.015625 -6.707031 Z M 5.015625 -6.707031 "/></g></g></g><g fill="#001f54" fill-opacity="1"><g transform="translate(168.554202, 235.647114)"><g/></g></g><g fill="#001f54" fill-opacity="1"><g transform="translate(171.842192, 235.647114)"><g><path d="M 5.589844 -6.5 L 4.199219 -2.445312 L 3.898438 -1.378906 L 3.5625 -2.445312 L 2.132812 -6.5 L 0.167969 -6.5 L 2.390625 -0.117188 L 3.496094 -0.117188 L 3.066406 1.078125 L 0.558594 1.078125 L 0.558594 2.597656 L 2.183594 2.597656 C 4.054688 2.597656 4.613281 1.78125 5.148438 0.195312 L 7.421875 -6.5 Z M 5.589844 -6.5 "/></g></g></g><g fill="#001f54" fill-opacity="1"><g transform="translate(179.392878, 235.647114)"><g><path d="M 4.082031 0.207031 C 6.679688 0.207031 7.679688 -1.457031 7.679688 -3.261719 C 7.679688 -5.042969 6.679688 -6.707031 4.082031 -6.707031 C 1.496094 -6.707031 0.480469 -5.054688 0.480469 -3.261719 C 0.480469 -1.441406 1.496094 0.207031 4.082031 0.207031 Z M 2.417969 -3.25 C 2.417969 -4.691406 2.910156 -5.199219 4.082031 -5.199219 C 5.265625 -5.199219 5.757812 -4.691406 5.757812 -3.25 C 5.757812 -1.808594 5.265625 -1.300781 4.082031 -1.300781 C 2.910156 -1.300781 2.417969 -1.808594 2.417969 -3.25 Z M 2.417969 -3.25 "/></g></g></g><g fill="#001f54" fill-opacity="1"><g transform="translate(187.55438, 235.647114)"><g><path d="M 5.421875 -6.5 L 5.421875 -3.546875 C 5.421875 -2.078125 4.820312 -1.363281 3.859375 -1.363281 C 3.042969 -1.363281 2.585938 -1.78125 2.585938 -2.808594 L 2.585938 -6.5 L 0.664062 -6.5 L 0.664062 -2.523438 C 0.664062 -0.820312 1.417969 0.207031 3.121094 0.207031 C 4.289062 0.207031 5.015625 -0.375 5.421875 -1.246094 L 5.421875 0 L 7.34375 0 L 7.34375 -6.5 Z M 5.421875 -6.5 "/></g></g></g><g fill="#001f54" fill-opacity="1"><g transform="translate(195.650903, 235.647114)"><g/></g></g><g fill="#001f54" fill-opacity="1"><g transform="translate(198.938893, 235.647114)"><g><path d="M 5.015625 -6.707031 C 3.835938 -6.707031 3.09375 -6.109375 2.675781 -5.226562 L 2.675781 -6.5 L 0.753906 -6.5 L 0.753906 0 L 2.675781 0 L 2.675781 -2.949219 C 2.675781 -4.496094 3.25 -5.148438 4.277344 -5.148438 C 5.070312 -5.148438 5.511719 -4.730469 5.511719 -3.691406 L 5.511719 0 L 7.433594 0 L 7.433594 -3.988281 C 7.433594 -5.691406 6.71875 -6.707031 5.015625 -6.707031 Z M 5.015625 -6.707031 "/></g></g></g><g fill="#001f54" fill-opacity="1"><g transform="translate(207.035416, 235.647114)"><g><path d="M 4.015625 -1.117188 C 3.09375 -1.117188 2.484375 -1.519531 2.367188 -2.753906 L 7.316406 -2.753906 C 7.34375 -2.898438 7.34375 -3.082031 7.34375 -3.273438 C 7.34375 -5.109375 6.433594 -6.707031 3.976562 -6.707031 C 1.574219 -6.707031 0.480469 -5.148438 0.480469 -3.261719 C 0.480469 -1.429688 1.441406 0.207031 3.976562 0.207031 C 6.316406 0.207031 7.148438 -0.921875 7.332031 -1.960938 L 5.484375 -1.960938 C 5.304688 -1.480469 4.859375 -1.117188 4.015625 -1.117188 Z M 4.003906 -5.40625 C 4.964844 -5.40625 5.445312 -4.914062 5.511719 -3.925781 L 2.378906 -3.925781 C 2.535156 -5.03125 3.082031 -5.40625 4.003906 -5.40625 Z M 4.003906 -5.40625 "/></g></g></g><g fill="#001f54" fill-opacity="1"><g transform="translate(214.83303, 235.647114)"><g><path d="M 4.015625 -1.117188 C 3.09375 -1.117188 2.484375 -1.519531 2.367188 -2.753906 L 7.316406 -2.753906 C 7.34375 -2.898438 7.34375 -3.082031 7.34375 -3.273438 C 7.34375 -5.109375 6.433594 -6.707031 3.976562 -6.707031 C 1.574219 -6.707031 0.480469 -5.148438 0.480469 -3.261719 C 0.480469 -1.429688 1.441406 0.207031 3.976562 0.207031 C 6.316406 0.207031 7.148438 -0.921875 7.332031 -1.960938 L 5.484375 -1.960938 C 5.304688 -1.480469 4.859375 -1.117188 4.015625 -1.117188 Z M 4.003906 -5.40625 C 4.964844 -5.40625 5.445312 -4.914062 5.511719 -3.925781 L 2.378906 -3.925781 C 2.535156 -5.03125 3.082031 -5.40625 4.003906 -5.40625 Z M 4.003906 -5.40625 "/></g></g></g><g fill="#001f54" fill-opacity="1"><g transform="translate(222.630645, 235.647114)"><g><path d="M 5.796875 -9.097656 L 5.796875 -5.523438 C 5.34375 -6.265625 4.589844 -6.707031 3.46875 -6.707031 C 1.351562 -6.707031 0.480469 -5.109375 0.480469 -3.261719 C 0.480469 -1.378906 1.351562 0.207031 3.46875 0.207031 C 4.589844 0.207031 5.34375 -0.222656 5.796875 -0.960938 L 5.796875 0 L 7.71875 0 L 7.71875 -9.097656 Z M 4.066406 -1.300781 C 2.847656 -1.300781 2.40625 -1.910156 2.40625 -3.25 C 2.40625 -4.601562 2.847656 -5.199219 4.066406 -5.199219 C 5.277344 -5.199219 5.796875 -4.574219 5.796875 -3.25 C 5.796875 -1.921875 5.277344 -1.300781 4.066406 -1.300781 Z M 4.066406 -1.300781 "/></g></g></g><g fill="#001f54" fill-opacity="1"><g transform="translate(231.065055, 235.647114)"><g/></g></g><g fill="#001f54" fill-opacity="1"><g transform="translate(234.353045, 235.647114)"><g><path d="M 3.71875 0 L 4.9375 0 L 4.9375 -1.535156 L 3.25 -1.535156 L 3.25 -5.042969 L 5.121094 -5.042969 L 5.121094 -6.5 L 3.25 -6.5 L 3.25 -8.046875 L 2.273438 -8.046875 L 1.480469 -6.511719 L 0.144531 -5.964844 L 0.144531 -5.042969 L 1.324219 -5.042969 L 1.324219 -2.339844 C 1.324219 -0.792969 1.871094 0 3.71875 0 Z M 3.71875 0 "/></g></g></g><g fill="#001f54" fill-opacity="1"><g transform="translate(239.811373, 235.647114)"><g><path d="M 4.082031 0.207031 C 6.679688 0.207031 7.679688 -1.457031 7.679688 -3.261719 C 7.679688 -5.042969 6.679688 -6.707031 4.082031 -6.707031 C 1.496094 -6.707031 0.480469 -5.054688 0.480469 -3.261719 C 0.480469 -1.441406 1.496094 0.207031 4.082031 0.207031 Z M 2.417969 -3.25 C 2.417969 -4.691406 2.910156 -5.199219 4.082031 -5.199219 C 5.265625 -5.199219 5.757812 -4.691406 5.757812 -3.25 C 5.757812 -1.808594 5.265625 -1.300781 4.082031 -1.300781 C 2.910156 -1.300781 2.417969 -1.808594 2.417969 -3.25 Z M 2.417969 -3.25 "/></g></g></g><g fill="#001f54" fill-opacity="1"><g transform="translate(247.972886, 235.647114)"><g/></g></g><g fill="#001f54" fill-opacity="1"><g transform="translate(251.260865, 235.647114)"><g><path d="M 5.808594 -6.5 L 5.808594 -5.640625 C 5.367188 -6.304688 4.640625 -6.695312 3.546875 -6.695312 C 1.429688 -6.695312 0.519531 -5.25 0.519531 -3.429688 C 0.519531 -1.652344 1.429688 -0.195312 3.546875 -0.195312 C 4.640625 -0.195312 5.367188 -0.558594 5.808594 -1.222656 L 5.808594 -0.0390625 C 5.808594 0.988281 5.304688 1.390625 4.171875 1.390625 C 3.09375 1.390625 2.636719 0.949219 2.558594 0.285156 L 0.675781 0.285156 C 0.765625 1.742188 1.871094 2.742188 4.09375 2.742188 C 6.734375 2.742188 7.734375 1.730469 7.734375 -0.261719 L 7.734375 -6.5 Z M 4.160156 -1.613281 C 2.9375 -1.613281 2.445312 -2.105469 2.445312 -3.40625 C 2.445312 -4.707031 2.9375 -5.199219 4.160156 -5.199219 C 5.355469 -5.199219 5.808594 -4.640625 5.808594 -3.40625 C 5.808594 -2.183594 5.355469 -1.613281 4.160156 -1.613281 Z M 4.160156 -1.613281 "/></g></g></g><g fill="#001f54" fill-opacity="1"><g transform="translate(259.721276, 235.647114)"><g><path d="M 4.082031 0.207031 C 6.679688 0.207031 7.679688 -1.457031 7.679688 -3.261719 C 7.679688 -5.042969 6.679688 -6.707031 4.082031 -6.707031 C 1.496094 -6.707031 0.480469 -5.054688 0.480469 -3.261719 C 0.480469 -1.441406 1.496094 0.207031 4.082031 0.207031 Z M 2.417969 -3.25 C 2.417969 -4.691406 2.910156 -5.199219 4.082031 -5.199219 C 5.265625 -5.199219 5.757812 -4.691406 5.757812 -3.25 C 5.757812 -1.808594 5.265625 -1.300781 4.082031 -1.300781 C 2.910156 -1.300781 2.417969 -1.808594 2.417969 -3.25 Z M 2.417969 -3.25 "/></g></g></g><g fill="#001f54" fill-opacity="1"><g transform="translate(267.877415, 235.647114)"><g/></g></g></svg>