<svg xmlns="http://www.w3.org/2000/svg" xmlns:xlink="http://www.w3.org/1999/xlink" width="500" zoomAndPan="magnify" viewBox="0 0 375 374.999991" height="500" preserveAspectRatio="xMidYMid meet" version="1.0"><defs><clipPath id="dcf98bd54b"><path d="M 0 1 L 374 1 L 374 374.933594 L 0 374.933594 Z M 0 1 " clip-rule="nonzero"/></clipPath></defs><g clip-path="url(#dcf98bd54b)"><path fill="#001f54" d="M 369.996094 93.082031 L 282.164062 5.265625 C 281.59375 4.667969 280.96875 4.132812 280.289062 3.660156 C 279.609375 3.1875 278.890625 2.789062 278.132812 2.460938 C 277.375 2.128906 276.589844 1.878906 275.78125 1.707031 C 274.972656 1.535156 274.15625 1.445312 273.328125 1.433594 C 272.5 1.425781 271.679688 1.5 270.867188 1.652344 C 270.054688 1.808594 269.265625 2.042969 268.5 2.355469 C 267.734375 2.664062 267.007812 3.050781 266.320312 3.507812 C 265.628906 3.964844 264.992188 4.488281 264.40625 5.070312 C 263.824219 5.65625 263.300781 6.292969 262.84375 6.980469 C 262.386719 7.667969 262 8.398438 261.6875 9.164062 C 261.375 9.929688 261.140625 10.714844 260.988281 11.527344 C 260.832031 12.339844 260.757812 13.160156 260.769531 13.988281 C 260.777344 14.816406 260.867188 15.632812 261.039062 16.441406 C 261.210938 17.25 261.460938 18.035156 261.789062 18.792969 C 262.121094 19.550781 262.519531 20.269531 262.992188 20.949219 C 263.464844 21.628906 264 22.253906 264.597656 22.824219 L 277.777344 36.003906 L 251.421875 62.347656 L 229.472656 40.398438 C 228.894531 39.820312 228.269531 39.304688 227.589844 38.851562 C 226.910156 38.398438 226.195312 38.015625 225.441406 37.703125 C 224.6875 37.390625 223.910156 37.15625 223.113281 36.996094 C 222.3125 36.835938 221.503906 36.757812 220.6875 36.757812 C 219.871094 36.757812 219.0625 36.835938 218.265625 36.996094 C 217.464844 37.15625 216.6875 37.390625 215.933594 37.703125 C 215.179688 38.015625 214.464844 38.398438 213.785156 38.851562 C 213.105469 39.304688 212.480469 39.820312 211.902344 40.398438 L 194.328125 57.957031 C 192.980469 59.3125 191.75 60.761719 190.625 62.304688 C 189.503906 63.851562 188.507812 65.46875 187.632812 67.167969 C 186.761719 68.867188 186.023438 70.621094 185.421875 72.429688 C 184.820312 74.242188 184.359375 76.089844 184.039062 77.96875 C 183.722656 79.851562 183.550781 81.746094 183.523438 83.65625 C 183.496094 85.5625 183.617188 87.464844 183.882812 89.351562 C 184.148438 91.242188 184.554688 93.101562 185.109375 94.929688 C 185.660156 96.757812 186.347656 98.53125 187.171875 100.25 L 80.1875 207.222656 C 78.933594 208.476562 77.734375 209.78125 76.589844 211.140625 C 75.449219 212.496094 74.367188 213.898438 73.34375 215.351562 C 72.324219 216.800781 71.363281 218.289062 70.46875 219.820312 C 69.574219 221.355469 68.75 222.921875 67.988281 224.523438 C 67.226562 226.125 66.535156 227.757812 65.914062 229.417969 C 65.296875 231.082031 64.746094 232.765625 64.269531 234.472656 C 63.792969 236.183594 63.390625 237.910156 63.0625 239.652344 C 62.734375 241.394531 62.480469 243.148438 62.300781 244.914062 C 62.121094 246.679688 62.019531 248.445312 61.992188 250.21875 C 61.964844 251.992188 62.011719 253.765625 62.136719 255.535156 C 62.257812 257.304688 62.460938 259.066406 62.734375 260.816406 C 63.007812 262.570312 63.359375 264.308594 63.78125 266.03125 C 64.203125 267.753906 64.699219 269.453125 65.269531 271.132812 C 65.839844 272.8125 66.480469 274.464844 67.1875 276.089844 C 67.898438 277.714844 68.679688 279.308594 69.523438 280.867188 C 70.371094 282.425781 71.28125 283.945312 72.261719 285.425781 L 4.640625 353.007812 C 4.0625 353.582031 3.546875 354.210938 3.09375 354.886719 C 2.640625 355.566406 2.257812 356.28125 1.945312 357.035156 C 1.632812 357.789062 1.394531 358.566406 1.234375 359.363281 C 1.078125 360.164062 0.996094 360.972656 0.996094 361.789062 C 0.996094 362.601562 1.074219 363.410156 1.234375 364.210938 C 1.394531 365.011719 1.628906 365.789062 1.941406 366.542969 C 2.253906 367.296875 2.636719 368.011719 3.089844 368.6875 C 3.542969 369.367188 4.058594 369.996094 4.632812 370.570312 C 5.210938 371.148438 5.839844 371.664062 6.515625 372.117188 C 7.195312 372.570312 7.910156 372.953125 8.664062 373.265625 C 9.417969 373.574219 10.195312 373.8125 10.996094 373.96875 C 11.796875 374.128906 12.601562 374.207031 13.417969 374.207031 C 14.234375 374.207031 15.042969 374.128906 15.84375 373.96875 C 16.640625 373.808594 17.417969 373.574219 18.171875 373.261719 C 18.925781 372.949219 19.640625 372.566406 20.320312 372.113281 C 20.996094 371.65625 21.625 371.144531 22.203125 370.566406 L 89.792969 302.957031 C 91.273438 303.933594 92.792969 304.84375 94.347656 305.6875 C 95.90625 306.535156 97.496094 307.3125 99.121094 308.019531 C 100.746094 308.730469 102.398438 309.371094 104.074219 309.9375 C 105.753906 310.507812 107.453125 311.003906 109.175781 311.425781 C 110.898438 311.847656 112.632812 312.199219 114.382812 312.472656 C 116.136719 312.746094 117.894531 312.945312 119.664062 313.070312 C 121.429688 313.195312 123.199219 313.242188 124.972656 313.214844 C 126.746094 313.191406 128.511719 313.085938 130.277344 312.910156 C 132.039062 312.730469 133.792969 312.476562 135.535156 312.148438 C 137.277344 311.820312 139 311.421875 140.707031 310.945312 C 142.414062 310.46875 144.101562 309.921875 145.761719 309.300781 C 147.421875 308.683594 149.050781 307.992188 150.652344 307.234375 C 152.257812 306.476562 153.824219 305.652344 155.355469 304.757812 C 156.882812 303.867188 158.375 302.910156 159.824219 301.890625 C 161.273438 300.867188 162.675781 299.789062 164.035156 298.648438 C 165.390625 297.507812 166.695312 296.3125 167.953125 295.0625 L 274.9375 188.089844 C 276.65625 188.929688 278.429688 189.628906 280.257812 190.191406 C 282.085938 190.75 283.945312 191.167969 285.835938 191.441406 C 287.730469 191.714844 289.632812 191.835938 291.542969 191.8125 C 293.453125 191.789062 295.351562 191.617188 297.238281 191.300781 C 299.121094 190.980469 300.972656 190.519531 302.785156 189.910156 C 304.597656 189.304688 306.351562 188.5625 308.050781 187.679688 C 309.746094 186.800781 311.367188 185.792969 312.90625 184.664062 C 314.449219 183.53125 315.890625 182.285156 317.238281 180.929688 L 334.808594 163.363281 C 335.382812 162.785156 335.898438 162.160156 336.351562 161.480469 C 336.804688 160.804688 337.1875 160.085938 337.496094 159.332031 C 337.808594 158.578125 338.046875 157.804688 338.203125 157.003906 C 338.363281 156.203125 338.441406 155.394531 338.441406 154.582031 C 338.441406 153.765625 338.363281 152.957031 338.203125 152.15625 C 338.046875 151.359375 337.808594 150.582031 337.496094 149.828125 C 337.1875 149.074219 336.804688 148.359375 336.351562 147.679688 C 335.898438 147 335.382812 146.375 334.808594 145.796875 L 312.847656 123.851562 L 339.195312 97.5 L 352.375 110.679688 C 352.953125 111.257812 353.582031 111.773438 354.261719 112.230469 C 354.941406 112.683594 355.660156 113.066406 356.414062 113.378906 C 357.167969 113.695312 357.949219 113.929688 358.75 114.089844 C 359.550781 114.25 360.359375 114.332031 361.179688 114.332031 C 361.996094 114.332031 362.804688 114.253906 363.609375 114.09375 C 364.410156 113.933594 365.1875 113.699219 365.945312 113.386719 C 366.699219 113.074219 367.417969 112.691406 368.097656 112.238281 C 368.777344 111.785156 369.40625 111.269531 369.984375 110.691406 C 370.5625 110.113281 371.082031 109.484375 371.535156 108.804688 C 371.988281 108.125 372.375 107.40625 372.6875 106.652344 C 373 105.898438 373.238281 105.121094 373.398438 104.316406 C 373.558594 103.515625 373.636719 102.707031 373.636719 101.890625 C 373.636719 101.070312 373.558594 100.261719 373.398438 99.460938 C 373.242188 98.660156 373.003906 97.878906 372.691406 97.125 C 372.378906 96.367188 371.996094 95.652344 371.542969 94.972656 C 371.089844 94.292969 370.574219 93.660156 369.996094 93.082031 Z M 150.417969 277.5 C 149.554688 278.363281 148.652344 279.183594 147.707031 279.957031 C 146.765625 280.730469 145.785156 281.457031 144.773438 282.136719 C 143.757812 282.8125 142.710938 283.441406 141.636719 284.015625 C 140.558594 284.589844 139.457031 285.113281 138.328125 285.578125 C 137.203125 286.046875 136.054688 286.457031 134.886719 286.808594 C 133.71875 287.164062 132.535156 287.460938 131.339844 287.699219 C 130.140625 287.9375 128.9375 288.117188 127.722656 288.234375 C 126.507812 288.355469 125.289062 288.414062 124.070312 288.414062 C 122.847656 288.414062 121.628906 288.355469 120.414062 288.234375 C 119.203125 288.117188 117.996094 287.9375 116.796875 287.699219 C 115.601562 287.460938 114.417969 287.164062 113.25 286.808594 C 112.082031 286.457031 110.933594 286.046875 109.808594 285.578125 C 108.679688 285.113281 107.578125 284.589844 106.503906 284.015625 C 105.425781 283.441406 104.378906 282.8125 103.367188 282.136719 C 102.351562 281.457031 101.371094 280.730469 100.429688 279.957031 C 99.484375 279.183594 98.582031 278.363281 97.71875 277.5 C 96.855469 276.640625 96.035156 275.734375 95.261719 274.792969 C 94.488281 273.847656 93.761719 272.871094 93.085938 271.855469 C 92.40625 270.839844 91.777344 269.796875 91.203125 268.71875 C 90.628906 267.644531 90.105469 266.542969 89.640625 265.414062 C 89.171875 264.285156 88.761719 263.140625 88.410156 261.972656 C 88.054688 260.804688 87.757812 259.621094 87.519531 258.425781 C 87.28125 257.226562 87.101562 256.023438 86.984375 254.808594 C 86.863281 253.59375 86.804688 252.375 86.804688 251.15625 C 86.804688 249.933594 86.863281 248.71875 86.984375 247.503906 C 87.101562 246.289062 87.28125 245.082031 87.519531 243.886719 C 87.757812 242.691406 88.054688 241.507812 88.410156 240.339844 C 88.761719 239.171875 89.171875 238.023438 89.640625 236.898438 C 90.109375 235.769531 90.628906 234.667969 91.203125 233.59375 C 91.777344 232.515625 92.40625 231.46875 93.085938 230.457031 C 93.761719 229.441406 94.488281 228.460938 95.261719 227.519531 C 96.035156 226.574219 96.855469 225.671875 97.71875 224.808594 L 203.117188 119.425781 L 255.8125 172.117188 L 238.265625 189.707031 L 220.730469 172.175781 C 220.148438 171.621094 219.519531 171.125 218.84375 170.691406 C 218.167969 170.257812 217.453125 169.890625 216.707031 169.597656 C 215.957031 169.300781 215.1875 169.078125 214.398438 168.933594 C 213.605469 168.789062 212.808594 168.71875 212.003906 168.726562 C 211.199219 168.738281 210.402344 168.824219 209.617188 168.984375 C 208.828125 169.148438 208.0625 169.386719 207.320312 169.699219 C 206.578125 170.011719 205.875 170.390625 205.207031 170.839844 C 204.539062 171.289062 203.921875 171.796875 203.351562 172.367188 C 202.785156 172.9375 202.277344 173.554688 201.828125 174.222656 C 201.378906 174.890625 201 175.59375 200.6875 176.335938 C 200.375 177.078125 200.136719 177.839844 199.972656 178.628906 C 199.8125 179.417969 199.726562 180.214844 199.71875 181.015625 C 199.707031 181.820312 199.777344 182.621094 199.925781 183.410156 C 200.070312 184.199219 200.292969 184.96875 200.585938 185.71875 C 200.882812 186.464844 201.25 187.179688 201.683594 187.855469 C 202.117188 188.53125 202.613281 189.160156 203.167969 189.742188 L 220.695312 207.273438 L 203.167969 224.796875 L 185.542969 207.199219 C 184.960938 206.644531 184.332031 206.148438 183.65625 205.714844 C 182.976562 205.277344 182.265625 204.914062 181.515625 204.617188 C 180.769531 204.324219 180 204.101562 179.207031 203.953125 C 178.417969 203.808594 177.621094 203.738281 176.816406 203.746094 C 176.011719 203.757812 175.214844 203.84375 174.425781 204.003906 C 173.640625 204.167969 172.875 204.40625 172.132812 204.71875 C 171.390625 205.027344 170.6875 205.410156 170.019531 205.859375 C 169.351562 206.304688 168.734375 206.816406 168.164062 207.382812 C 167.59375 207.953125 167.085938 208.570312 166.636719 209.238281 C 166.1875 209.90625 165.808594 210.609375 165.496094 211.351562 C 165.183594 212.09375 164.945312 212.855469 164.78125 213.644531 C 164.621094 214.433594 164.53125 215.226562 164.523438 216.03125 C 164.515625 216.835938 164.585938 217.632812 164.730469 218.425781 C 164.875 219.214844 165.097656 219.984375 165.394531 220.734375 C 165.6875 221.480469 166.054688 222.195312 166.488281 222.871094 C 166.921875 223.546875 167.417969 224.179688 167.972656 224.757812 L 185.570312 242.355469 Z M 299.734375 163.335938 C 299.15625 163.910156 298.527344 164.421875 297.851562 164.875 C 297.171875 165.328125 296.457031 165.710938 295.703125 166.019531 C 294.949219 166.332031 294.171875 166.566406 293.371094 166.726562 C 292.574219 166.882812 291.765625 166.964844 290.949219 166.964844 C 290.132812 166.964844 289.328125 166.882812 288.527344 166.726562 C 287.726562 166.566406 286.949219 166.332031 286.199219 166.019531 C 285.445312 165.710938 284.726562 165.328125 284.050781 164.875 C 283.371094 164.421875 282.742188 163.910156 282.164062 163.335938 L 211.902344 93.078125 C 211.328125 92.5 210.816406 91.871094 210.363281 91.191406 C 209.910156 90.511719 209.53125 89.796875 209.21875 89.042969 C 208.90625 88.289062 208.671875 87.515625 208.515625 86.714844 C 208.355469 85.914062 208.277344 85.109375 208.277344 84.292969 C 208.277344 83.476562 208.355469 82.671875 208.515625 81.871094 C 208.671875 81.070312 208.90625 80.296875 209.21875 79.542969 C 209.53125 78.789062 209.910156 78.074219 210.363281 77.394531 C 210.816406 76.714844 211.328125 76.085938 211.902344 75.511719 L 220.695312 66.734375 L 308.511719 154.550781 Z M 295.367188 106.253906 L 269.019531 79.90625 L 295.367188 53.5625 L 321.722656 79.914062 Z M 295.367188 106.253906 " fill-opacity="1" fill-rule="nonzero"/></g></svg>