<svg xmlns="http://www.w3.org/2000/svg" xmlns:xlink="http://www.w3.org/1999/xlink" width="500" zoomAndPan="magnify" viewBox="0 0 375 374.999991" height="500" preserveAspectRatio="xMidYMid meet" version="1.0"><defs><clipPath id="98241fa481"><path d="M 0 11.015625 L 375 11.015625 L 375 364 L 0 364 Z M 0 11.015625 " clip-rule="nonzero"/></clipPath></defs><g clip-path="url(#98241fa481)"><path fill="#001f54" d="M 131.332031 10.992188 L 68.429688 31.980469 L 131.332031 136.867188 Z M 63.785156 34.847656 L 24.035156 74.628906 L 123.339844 134.234375 Z M 21.164062 79.246094 L 1.972656 136.933594 L 117.261719 136.933594 Z M 368.703125 93.90625 L 303.136719 137.652344 L 303.273438 137.855469 L 311.914062 137.855469 C 311.117188 140.777344 310.320312 143.695312 309.488281 146.605469 L 374.78125 103.03125 Z M 0.195312 142.230469 C 0.195312 142.230469 28.613281 251.597656 65.761719 251.597656 L 240.605469 251.597656 C 277.753906 251.597656 306.175781 142.230469 306.175781 142.230469 Z M 137.03125 255.972656 L 99.605469 293.703125 C 104.003906 294.300781 108.269531 295.726562 112.171875 297.839844 L 149.292969 260.449219 L 187.472656 298.933594 C 191.078125 296.589844 195.097656 294.929688 199.355469 294.078125 L 161.589844 256.039062 C 153.40625 256.027344 145.21875 255.996094 137.035156 255.972656 Z M 94.6875 297.769531 C 76.644531 297.769531 62.007812 312.386719 62.007812 330.441406 C 62.007812 348.5 76.644531 363.148438 94.6875 363.148438 C 112.730469 363.148438 127.335938 348.5 127.335938 330.441406 C 127.335938 312.386719 112.730469 297.769531 94.6875 297.769531 Z M 207.070312 297.769531 C 189.027344 297.769531 174.390625 312.386719 174.390625 330.441406 C 174.390625 348.5 189.027344 363.148438 207.070312 363.148438 C 225.113281 363.148438 239.714844 348.5 239.714844 330.441406 C 239.714844 312.386719 225.113281 297.769531 207.070312 297.769531 Z M 93.964844 301.699219 C 94.023438 301.699219 94.082031 301.703125 94.136719 301.699219 C 99.625 301.492188 104.988281 303.074219 109.640625 305.972656 C 109.671875 305.992188 109.714844 305.988281 109.746094 306.007812 L 109.710938 306.042969 C 125.203125 314.683594 127.8125 337.175781 116.027344 349.820312 C 116.003906 349.84375 115.980469 349.867188 115.960938 349.890625 C 115.949219 349.902344 115.9375 349.910156 115.925781 349.921875 C 103.886719 364.238281 79.777344 361.375 70.199219 345.753906 C 70.175781 345.71875 70.152344 345.6875 70.128906 345.652344 C 57.9375 328.050781 72.613281 301.195312 93.964844 301.699219 Z M 206.347656 301.699219 C 206.40625 301.699219 206.460938 301.703125 206.519531 301.699219 C 212.007812 301.492188 217.371094 303.074219 222.023438 305.972656 C 222.054688 305.992188 222.09375 305.988281 222.125 306.007812 L 222.089844 306.042969 C 237.585938 314.683594 240.195312 337.175781 228.410156 349.820312 C 228.386719 349.84375 228.363281 349.867188 228.339844 349.890625 C 228.332031 349.902344 228.316406 349.910156 228.308594 349.921875 C 216.269531 364.238281 192.160156 361.375 182.582031 345.753906 C 182.558594 345.71875 182.535156 345.6875 182.511719 345.652344 C 170.320312 328.050781 184.996094 301.195312 206.347656 301.699219 Z M 94 305.871094 C 76.105469 305.324219 63.332031 328.679688 73.613281 343.363281 L 73.648438 343.429688 L 73.679688 343.464844 C 81.71875 356.710938 102.746094 359.269531 112.816406 347.15625 L 112.847656 347.121094 L 112.917969 347.054688 C 122.902344 336.457031 120.703125 316.804688 107.660156 309.59375 L 107.589844 309.5625 L 107.554688 309.5625 C 103.488281 307.007812 98.84375 305.660156 94.167969 305.871094 Z M 206.382812 305.871094 C 188.488281 305.324219 175.714844 328.679688 185.992188 343.363281 L 186.027344 343.429688 L 186.0625 343.464844 C 194.101562 356.710938 215.128906 359.269531 225.195312 347.15625 L 225.230469 347.121094 L 225.300781 347.054688 C 235.285156 336.457031 233.085938 316.804688 220.039062 309.59375 L 219.972656 309.5625 L 219.9375 309.5625 C 215.871094 307.007812 211.222656 305.660156 206.550781 305.871094 L 206.378906 305.871094 Z M 206.382812 305.871094 " fill-opacity="1" fill-rule="nonzero"/></g></svg>