<svg xmlns="http://www.w3.org/2000/svg" xmlns:xlink="http://www.w3.org/1999/xlink" width="185" zoomAndPan="magnify" viewBox="0 0 138.75 138.750001" height="185" preserveAspectRatio="xMidYMid meet" version="1.0"><defs><clipPath id="076524ebc2"><path d="M 12.363281 0 L 125 0 L 125 135 L 12.363281 135 Z M 12.363281 0 " clip-rule="nonzero"/></clipPath><clipPath id="fe01ae6dc0"><path d="M 12.363281 2 L 119 2 L 119 136 L 12.363281 136 Z M 12.363281 2 " clip-rule="nonzero"/></clipPath></defs><g clip-path="url(#076524ebc2)"><path fill="#ffffff" d="M 56.640625 2.941406 C 59.984375 1 63.679688 0 67.648438 0.351562 C 76.148438 1.078125 82.597656 4.589844 86.859375 10.308594 C 89.398438 11.550781 91.339844 12.605469 91.960938 13.089844 C 91.960938 13.089844 93.957031 20.078125 92.878906 22.507812 C 92.824219 22.644531 92.582031 22.777344 92.175781 22.941406 C 92.851562 26.503906 93.09375 30.417969 92.878906 34.652344 C 91.90625 54.355469 83.460938 61.964844 83.460938 61.964844 C 106.910156 59.671875 124.5 72.464844 124.746094 83.207031 C 124.933594 91.519531 119.753906 94.972656 117.378906 96.109375 C 113.382812 110.761719 93.550781 115.40625 89.398438 116.1875 C 92.417969 119.585938 94.683594 124.042969 92.257812 128.765625 C 87.15625 138.75 62.871094 133.351562 51.890625 126.957031 C 40.90625 120.558594 42.148438 110.84375 43.6875 107.226562 C 44.496094 105.335938 44.980469 102.691406 45.25 100.5625 C 37.914062 93.058594 37.617188 83.746094 37.9375 79.480469 C 35.1875 78.320312 31.839844 76.488281 29.734375 73.816406 C 25.527344 68.550781 14.921875 24.667969 14.921875 24.667969 C 14.246094 24.210938 13.789062 23.777344 13.628906 23.425781 C 12.546875 20.835938 12.871094 13.0625 14.222656 11.902344 C 14.273438 11.847656 39.152344 5.503906 56.640625 2.941406 Z M 56.640625 2.941406 " fill-opacity="1" fill-rule="nonzero"/></g><path fill="#5dadec" d="M 45.007812 102.046875 L 46.4375 101.828125 C 50.675781 105.066406 53.183594 107.957031 57.230469 110.035156 C 67.351562 115.214844 79.898438 114.433594 85.78125 125.308594 C 86.5625 126.738281 87.832031 128.871094 87.777344 130.574219 C 87.722656 132.597656 84.726562 133.621094 82.058594 134.136719 C 72.53125 135.050781 59.203125 131.21875 51.863281 126.957031 C 40.878906 120.558594 42.121094 110.84375 43.660156 107.226562 C 44.28125 105.742188 44.738281 103.828125 45.007812 102.046875 Z M 41.527344 22.183594 C 43.847656 15.300781 48.625 6.34375 58.257812 2.160156 C 58.257812 2.160156 40.582031 12.683594 43.984375 43.75 C 46.816406 69.578125 59.902344 68.390625 63.25 67.632812 L 64.03125 67.417969 C 64.03125 67.417969 63.761719 67.527344 63.25 67.632812 L 52.78125 70.46875 C 52.78125 70.46875 52.484375 70.386719 51.996094 70.144531 C 52.078125 70.65625 52.160156 71.144531 52.1875 71.65625 C 52.375 71.277344 52.5625 70.871094 52.78125 70.46875 C 52.78125 70.46875 46.980469 94.109375 82.21875 97.1875 C 117.460938 100.265625 124.960938 89.441406 124.71875 82.316406 C 124.71875 82.316406 126.253906 90.574219 118.351562 95.675781 C 117.164062 96.457031 115.707031 97.214844 114.003906 97.890625 C 111.980469 103.339844 102.859375 109.738281 98.867188 110.925781 C 84.296875 115.296875 73.71875 113.109375 59.824219 105.929688 C 52.753906 102.261719 45.546875 95.566406 42.527344 88.039062 C 41.582031 85.714844 41.175781 82.371094 40.664062 78.726562 C 38.289062 77.027344 35.96875 76.433594 34.484375 73.761719 C 29.601562 64.988281 27.335938 54.921875 24.988281 45.261719 C 23.691406 39.917969 20.425781 33.117188 19.996094 27.476562 C 16.59375 25.667969 13.628906 24.019531 13.628906 24.019531 C 13.628906 24.019531 12.519531 14.386719 13.628906 13.386719 C 13.628906 13.386719 26.984375 20.996094 30.921875 20.671875 C 34.863281 20.351562 42.148438 19.460938 42.148438 19.460938 C 42.148438 19.460938 41.90625 20.59375 41.527344 22.183594 Z M 82.21875 88.066406 C 82.21875 88.066406 61.550781 85.664062 70.695312 78.347656 C 79.84375 71.035156 96.195312 77.132812 96.195312 77.132812 C 96.195312 77.132812 107.554688 80.941406 105.613281 85.339844 C 103.644531 89.738281 82.21875 88.066406 82.21875 88.066406 Z M 85.941406 9.148438 C 86.265625 9.527344 86.5625 9.90625 86.859375 10.308594 C 89.398438 11.550781 91.339844 12.605469 91.960938 13.089844 C 91.960938 13.089844 93.957031 20.078125 92.878906 22.507812 C 92.824219 22.644531 92.582031 22.777344 92.175781 22.941406 C 92.203125 23.101562 92.230469 23.292969 92.285156 23.453125 C 89.53125 16.382812 85.914062 9.121094 85.914062 9.121094 Z M 85.941406 9.148438 " fill-opacity="1" fill-rule="nonzero"/><g clip-path="url(#fe01ae6dc0)"><path fill="#35378f" d="M 56.503906 10.875 C 57.449219 9.933594 58.5 9.175781 59.660156 8.609375 C 59.769531 8.554688 59.875 8.582031 59.929688 8.71875 C 59.957031 8.796875 59.929688 8.90625 59.851562 8.960938 C 58.824219 9.609375 57.933594 10.472656 57.125 11.46875 C 56.367188 12.386719 55.722656 13.441406 55.128906 14.574219 C 54.832031 15.140625 54.5625 15.734375 54.292969 16.355469 C 53.914062 17.246094 53.5625 18.164062 53.238281 19.136719 C 52.753906 20.59375 52.375 22.132812 52.050781 23.667969 C 51.726562 25.207031 51.484375 26.773438 51.324219 28.3125 C 51.242188 28.933594 51.1875 29.554688 51.132812 30.171875 C 51.082031 30.820312 51.027344 31.441406 51 32.0625 C 50.863281 34.167969 50.863281 36.109375 51.054688 37.730469 C 51.054688 37.839844 51 37.917969 50.890625 37.945312 C 50.785156 37.945312 50.703125 37.890625 50.675781 37.785156 C 50.324219 36.136719 50.054688 34.195312 49.972656 32.035156 C 49.945312 31.386719 49.945312 30.742188 49.945312 30.09375 C 49.945312 29.445312 49.972656 28.796875 50.027344 28.148438 C 50.164062 26.585938 50.378906 24.964844 50.703125 23.371094 C 51 21.753906 51.429688 20.1875 51.945312 18.675781 C 52.265625 17.679688 52.671875 16.707031 53.105469 15.789062 C 53.402344 15.140625 53.75 14.546875 54.101562 13.953125 C 54.804688 12.820312 55.613281 11.765625 56.503906 10.875 Z M 83.542969 7.691406 C 84.109375 8.421875 84.675781 9.230469 85.1875 10.066406 C 85.457031 10.5 85.726562 10.929688 85.996094 11.390625 C 86.375 12.035156 86.777344 12.710938 87.128906 13.414062 C 87.695312 14.464844 88.210938 15.574219 88.695312 16.679688 C 89.179688 17.8125 89.640625 18.945312 90.042969 20.054688 C 90.207031 20.511719 90.394531 20.96875 90.558594 21.429688 C 90.71875 21.886719 90.878906 22.347656 91.042969 22.804688 C 91.582031 24.34375 91.988281 25.746094 92.285156 27.015625 C 92.3125 27.125 92.390625 27.179688 92.5 27.179688 C 92.609375 27.152344 92.660156 27.070312 92.660156 26.960938 C 92.609375 26.015625 92.5 24.992188 92.3125 23.886719 C 92.148438 22.914062 91.933594 21.886719 91.664062 20.835938 C 91.5 20.242188 91.3125 19.648438 91.125 19.054688 C 90.664062 17.703125 90.125 16.355469 89.503906 15.003906 C 88.964844 13.871094 88.398438 12.765625 87.75 11.6875 C 87.320312 10.957031 86.859375 10.253906 86.347656 9.609375 C 85.699219 8.746094 85 7.960938 84.269531 7.261719 C 83.488281 6.503906 82.675781 5.855469 81.839844 5.289062 C 81.761719 5.234375 81.652344 5.234375 81.597656 5.316406 C 81.492188 5.371094 81.515625 5.503906 81.597656 5.558594 C 82.300781 6.179688 82.921875 6.910156 83.542969 7.691406 Z M 83.730469 70.792969 C 93.308594 70.980469 101.945312 74.03125 105.882812 78.078125 C 108.5 80.777344 107.503906 83.234375 106.53125 84.582031 C 106.53125 84.636719 106.53125 84.664062 106.503906 84.691406 C 106.019531 85.367188 105.289062 86.09375 104.425781 86.714844 C 103.644531 87.28125 102.753906 87.769531 101.835938 88.09375 C 100.460938 88.578125 98.894531 88.929688 97.222656 89.144531 C 95.738281 89.332031 94.171875 89.414062 92.527344 89.441406 C 90.261719 89.441406 87.859375 89.304688 85.511719 89.089844 C 83.109375 88.875 80.761719 88.523438 78.550781 88.144531 C 77.226562 87.902344 76.066406 87.660156 75.042969 87.335938 C 72.828125 86.660156 71.238281 85.878906 70.078125 85.070312 C 67.863281 83.53125 67.1875 81.9375 67 80.964844 C 64.789062 74.113281 75.582031 70.601562 83.730469 70.792969 Z M 87.695312 78.941406 C 80.679688 78.1875 75.09375 79.050781 71.695312 80.210938 C 70.589844 80.617188 69.886719 81.074219 69.507812 81.535156 C 69.238281 81.855469 69.105469 82.289062 69.160156 82.695312 C 69.214844 83.125 69.429688 83.503906 69.78125 83.746094 C 70.023438 83.933594 70.292969 84.097656 70.5625 84.285156 C 71.722656 84.960938 73.289062 85.582031 75.363281 86.121094 C 76.363281 86.363281 77.496094 86.605469 78.765625 86.796875 C 80.007812 87.011719 89.640625 88.390625 96.65625 87.957031 C 100.539062 87.742188 103.292969 86.5 104.535156 85.796875 C 104.695312 85.691406 104.804688 85.5 104.804688 85.3125 C 104.804688 85.121094 104.722656 84.933594 104.589844 84.800781 C 102.511719 83.261719 97.140625 79.96875 87.695312 78.941406 Z M 118.941406 95.835938 C 118.863281 95.703125 118.699219 95.675781 118.566406 95.757812 C 114.300781 98.320312 108.714844 99.832031 102.617188 100.535156 C 97.25 101.128906 91.5 101.101562 85.863281 100.5625 C 80.058594 99.992188 74.394531 98.914062 69.429688 97.429688 C 63.007812 95.488281 57.773438 92.921875 55.101562 89.875 C 52.160156 86.554688 50.972656 83.316406 50.648438 80.425781 C 50.40625 78.132812 50.566406 76.378906 51.242188 74.707031 C 51.945312 73.03125 53.453125 71.167969 54.804688 70.441406 C 55.453125 70.089844 56.046875 69.875 56.503906 69.738281 C 57.257812 69.605469 58.042969 69.441406 58.878906 69.28125 C 59.796875 69.089844 60.765625 68.902344 61.738281 68.6875 C 63.277344 68.335938 64.867188 67.929688 66.460938 67.527344 C 68.027344 67.121094 69.617188 66.714844 71.183594 66.3125 C 72.371094 65.988281 73.558594 65.664062 74.691406 65.339844 C 75.203125 65.179688 75.6875 65.042969 76.175781 64.882812 C 77.46875 64.449219 78.710938 64.019531 79.871094 63.613281 C 81.21875 63.128906 82.433594 62.667969 83.542969 62.238281 C 83.675781 62.210938 83.757812 62.046875 83.730469 61.914062 C 83.703125 61.777344 83.542969 61.695312 83.40625 61.722656 C 81.734375 62.046875 79.789062 62.398438 77.632812 62.804688 C 77.011719 62.910156 76.363281 63.046875 75.714844 63.179688 C 75.09375 63.316406 74.449219 63.449219 73.800781 63.613281 C 72.261719 63.964844 70.671875 64.367188 69.078125 64.773438 C 67.484375 65.179688 65.894531 65.582031 64.355469 65.988281 C 63.332031 66.257812 62.332031 66.527344 61.332031 66.824219 C 60.660156 67.011719 59.984375 67.230469 59.335938 67.417969 C 58.824219 67.582031 58.3125 67.742188 57.824219 67.902344 C 57.421875 68.039062 57.042969 68.175781 56.664062 68.308594 C 55.046875 68.714844 51.996094 68.984375 49.191406 66.394531 C 47.574219 64.828125 45.601562 62.398438 43.875 58.863281 C 41.609375 54.222656 39.773438 47.664062 39.640625 38.59375 C 39.449219 30.523438 41.230469 23.9375 43.6875 18.757812 C 48.757812 8.042969 56.71875 3.183594 56.71875 3.183594 C 56.855469 3.105469 56.882812 2.941406 56.828125 2.808594 C 56.746094 2.671875 56.585938 2.644531 56.449219 2.699219 C 56.449219 2.699219 48.085938 7.394531 42.582031 18.191406 C 40.878906 21.539062 39.449219 25.449219 38.640625 29.984375 C 38.289062 30.121094 37.914062 30.335938 37.695312 30.445312 C 37.34375 30.605469 36.644531 30.765625 35.808594 30.929688 C 35.78125 30.929688 35.78125 30.929688 35.753906 30.929688 C 34.566406 31.039062 33.21875 31.28125 31.921875 31.308594 C 31.300781 31.308594 30.707031 31.28125 30.140625 31.171875 L 26.632812 29.714844 L 26.203125 29.527344 C 25.257812 29.09375 24.203125 28.609375 23.097656 28.09375 C 21.558594 27.367188 19.941406 26.585938 18.484375 25.855469 C 16.621094 24.882812 15.03125 23.964844 14.273438 23.292969 C 14.058594 22.699219 13.871094 21.859375 13.707031 20.890625 C 13.492188 19.648438 13.355469 18.21875 13.332031 16.839844 C 13.277344 14.980469 13.410156 13.277344 13.925781 12.46875 C 13.976562 12.386719 13.949219 12.28125 13.898438 12.226562 C 13.816406 12.171875 13.707031 12.199219 13.652344 12.253906 C 13.035156 13.035156 12.628906 14.816406 12.492188 16.8125 C 12.46875 18.191406 12.492188 19.703125 12.628906 20.996094 C 12.738281 22.15625 12.980469 23.183594 13.222656 23.859375 C 13.25 23.9375 13.304688 23.992188 13.355469 24.074219 C 13.679688 24.425781 14.222656 24.828125 14.894531 25.289062 C 14.921875 25.398438 14.949219 25.503906 14.976562 25.558594 C 15.109375 26.125 31.4375 35.03125 34.324219 35.679688 C 36.507812 36.164062 37.453125 39.160156 38.019531 41.238281 C 38.371094 49.335938 40.070312 55.355469 42.175781 59.726562 C 45.199219 66.070312 49.03125 69.089844 50.808594 70.226562 C 49.867188 71.953125 48.164062 75.839844 48.679688 80.644531 C 49.03125 83.855469 50.351562 87.5 53.589844 91.167969 C 56.476562 94.40625 62.007812 97.242188 68.890625 99.238281 C 73.988281 100.695312 79.789062 101.722656 85.726562 102.152344 C 91.472656 102.558594 97.328125 102.421875 102.78125 101.640625 C 108.988281 100.722656 114.597656 98.96875 118.863281 96.214844 C 118.996094 96.132812 119.023438 95.972656 118.941406 95.835938 Z M 71.398438 114.269531 C 70.804688 114.164062 70.210938 114.054688 69.644531 113.945312 C 68.214844 113.675781 66.839844 113.351562 65.460938 112.894531 C 65.355469 112.867188 64.246094 112.4375 64.167969 112.570312 C 64.113281 112.625 64.542969 112.921875 64.570312 112.921875 C 65.058594 113.273438 65.570312 113.570312 66.054688 113.867188 C 68.214844 115.160156 70.398438 116.59375 72.746094 117.457031 C 74.257812 118.023438 75.796875 118.398438 77.308594 118.941406 C 80.410156 119.992188 83.566406 121.125 86.726562 119.535156 C 87.859375 119.046875 88.722656 118.128906 89.613281 117.238281 C 90.53125 116.863281 91.445312 116.132812 92.335938 115.753906 L 94.710938 114.59375 C 91.175781 115.511719 86.402344 115.539062 84.054688 115.566406 C 81.597656 115.621094 75.609375 114.835938 71.398438 114.269531 Z M 93.308594 126.226562 C 93.175781 126.199219 93.011719 126.28125 92.984375 126.417969 C 91.609375 130.976562 87.238281 132.8125 82.03125 133.296875 C 80.679688 133.40625 79.277344 133.433594 77.820312 133.40625 C 76.417969 133.378906 75.015625 133.269531 73.609375 133.136719 C 68.96875 132.652344 64.410156 131.652344 61.117188 130.707031 C 58.960938 130.085938 56.71875 129.277344 54.613281 128.222656 C 52.539062 127.199219 50.621094 125.902344 49.082031 124.285156 C 47.085938 122.234375 45.574219 120.15625 44.65625 117.914062 C 43.742188 115.648438 43.472656 113.191406 44.039062 110.332031 C 44.792969 106.308594 45.117188 103.90625 45.226562 102.476562 C 45.226562 102.316406 45.25 102.152344 45.25 101.992188 L 45.277344 101.992188 C 45.441406 102.070312 45.601562 102.152344 45.765625 102.234375 C 46.464844 102.558594 48.058594 103.207031 48.785156 103.449219 C 48.839844 103.476562 49.378906 103.664062 49.40625 103.609375 C 49.460938 103.554688 49.300781 103.394531 49.273438 103.367188 C 49.054688 103.152344 48.8125 102.960938 48.542969 102.828125 C 48.410156 102.746094 48.273438 102.664062 48.140625 102.585938 C 47.597656 102.152344 47.085938 101.695312 46.601562 101.207031 C 45.683594 100.316406 44.875 99.347656 44.117188 98.320312 C 43.742188 97.808594 43.390625 97.296875 43.039062 96.753906 C 42.230469 95.515625 41.527344 94.21875 40.933594 92.84375 C 40.421875 91.679688 40.015625 90.46875 39.640625 89.253906 C 39.394531 88.441406 39.207031 87.605469 39.019531 86.769531 C 38.800781 85.714844 38.585938 84.664062 38.453125 83.613281 C 38.316406 82.53125 38.210938 81.480469 38.183594 80.398438 C 38.183594 80.292969 38.101562 80.210938 38.019531 80.210938 C 37.914062 80.210938 37.832031 80.292969 37.832031 80.371094 C 37.695312 81.453125 37.617188 82.558594 37.617188 83.664062 C 37.617188 84.773438 37.695312 85.878906 37.832031 86.984375 C 37.9375 87.875 38.128906 88.738281 38.34375 89.601562 C 38.667969 90.898438 39.125 92.167969 39.640625 93.382812 C 40.261719 94.8125 41.015625 96.214844 41.90625 97.484375 C 42.285156 98.023438 42.6875 98.5625 43.148438 99.078125 C 43.605469 99.671875 44.117188 100.183594 44.65625 100.667969 C 44.65625 100.804688 44.65625 101.046875 44.632812 101.453125 C 44.523438 102.613281 44.117188 105.09375 42.796875 110.0625 C 41.988281 113.191406 42.121094 115.972656 43.039062 118.535156 C 43.929688 121.046875 45.523438 123.339844 47.652344 125.632812 C 49.003906 127.0625 50.621094 128.304688 52.402344 129.304688 C 54.964844 130.789062 57.851562 131.867188 60.578125 132.652344 C 63.953125 133.59375 71.074219 134.648438 75.878906 135.027344 C 78.871094 135.269531 81.894531 135.242188 84.648438 134.835938 C 90.261719 134 93.28125 131.300781 93.496094 126.550781 C 93.496094 126.390625 93.445312 126.253906 93.308594 126.226562 Z M 93.308594 126.226562 " fill-opacity="1" fill-rule="nonzero"/></g></svg>