<svg xmlns="http://www.w3.org/2000/svg" xmlns:xlink="http://www.w3.org/1999/xlink" width="500" zoomAndPan="magnify" viewBox="0 0 375 374.999991" height="500" preserveAspectRatio="xMidYMid meet" version="1.0"><defs><clipPath id="5a2d9f015d"><path d="M 33.410156 7 L 322 7 L 322 366 L 33.410156 366 Z M 33.410156 7 " clip-rule="nonzero"/></clipPath></defs><path fill="#ffffff" d="M 153.132812 7.949219 C 162.179688 2.699219 172.175781 0 182.902344 0.949219 C 205.882812 2.917969 223.320312 12.398438 234.847656 27.863281 C 241.707031 31.21875 246.960938 34.0625 248.636719 35.378906 C 248.636719 35.378906 254.035156 54.269531 251.117188 60.835938 C 250.972656 61.199219 250.316406 61.5625 249.222656 62 C 251.046875 71.628906 251.703125 82.207031 251.117188 93.660156 C 248.492188 146.90625 225.65625 167.476562 225.65625 167.476562 C 289.058594 161.277344 336.628906 195.851562 337.285156 224.882812 C 337.792969 247.351562 323.785156 256.6875 317.367188 259.75 C 306.566406 299.359375 252.941406 311.902344 241.707031 314.019531 C 249.878906 323.210938 256.007812 335.246094 249.441406 348.011719 C 235.652344 375 169.988281 360.410156 140.292969 343.125 C 110.597656 325.835938 113.953125 299.578125 118.113281 289.800781 C 120.300781 284.695312 121.613281 277.546875 122.34375 271.785156 C 102.5 251.507812 101.695312 226.34375 102.574219 214.816406 C 95.128906 211.679688 86.082031 206.71875 80.394531 199.5 C 69.011719 185.273438 40.339844 66.667969 40.339844 66.667969 C 38.515625 65.429688 37.273438 64.261719 36.835938 63.316406 C 33.917969 56.3125 34.792969 35.304688 38.441406 32.167969 C 38.585938 32.023438 105.855469 14.878906 153.132812 7.949219 Z M 153.132812 7.949219 " fill-opacity="1" fill-rule="nonzero"/><path fill="#5dadec" d="M 121.6875 275.796875 L 125.554688 275.214844 C 137.007812 283.96875 143.792969 291.773438 154.738281 297.386719 C 182.097656 311.394531 216.023438 309.277344 231.929688 338.675781 C 234.046875 342.539062 237.476562 348.304688 237.328125 352.898438 C 237.183594 358.367188 229.085938 361.140625 221.863281 362.527344 C 196.105469 365.007812 160.066406 354.648438 140.21875 343.125 C 110.523438 325.835938 113.882812 299.578125 118.039062 289.800781 C 119.71875 285.789062 120.957031 280.613281 121.6875 275.796875 Z M 112.277344 59.960938 C 118.550781 41.359375 131.464844 17.140625 157.511719 5.835938 C 157.511719 5.835938 109.722656 34.285156 118.914062 118.242188 C 126.578125 188.046875 161.960938 184.835938 171.007812 182.796875 L 173.125 182.210938 C 173.125 182.210938 172.394531 182.503906 171.007812 182.796875 L 142.699219 190.453125 C 142.699219 190.453125 141.898438 190.234375 140.585938 189.578125 C 140.804688 190.964844 141.023438 192.277344 141.09375 193.664062 C 141.605469 192.640625 142.117188 191.546875 142.699219 190.453125 C 142.699219 190.453125 127.015625 254.351562 222.300781 262.667969 C 317.585938 270.984375 337.867188 241.734375 337.210938 222.476562 C 337.210938 222.476562 341.371094 244.796875 319.992188 258.582031 C 316.78125 260.699219 312.84375 262.742188 308.246094 264.5625 C 302.773438 279.296875 278.113281 296.585938 267.316406 299.796875 C 227.917969 311.613281 199.316406 305.703125 161.742188 286.300781 C 142.628906 276.382812 123.148438 258.292969 114.976562 237.941406 C 112.421875 231.667969 111.328125 222.621094 109.941406 212.773438 C 103.519531 208.179688 97.246094 206.574219 93.234375 199.351562 C 80.027344 175.648438 73.898438 148.4375 67.550781 122.324219 C 64.050781 107.882812 55.222656 89.5 54.054688 74.257812 C 44.863281 69.367188 36.835938 64.917969 36.835938 64.917969 C 36.835938 64.917969 33.84375 38.878906 36.835938 36.179688 C 36.835938 36.179688 72.949219 56.75 83.601562 55.875 C 94.253906 55 113.953125 52.59375 113.953125 52.59375 C 113.953125 52.59375 113.296875 55.65625 112.277344 59.960938 Z M 222.300781 238.011719 C 222.300781 238.011719 166.414062 231.519531 191.144531 211.753906 C 215.878906 191.984375 260.09375 208.472656 260.09375 208.472656 C 260.09375 208.472656 290.808594 218.757812 285.554688 230.644531 C 280.230469 242.535156 222.300781 238.011719 222.300781 238.011719 Z M 232.367188 24.726562 C 233.242188 25.75 234.046875 26.769531 234.847656 27.863281 C 241.707031 31.21875 246.960938 34.0625 248.636719 35.378906 C 248.636719 35.378906 254.035156 54.269531 251.117188 60.835938 C 250.972656 61.199219 250.316406 61.5625 249.222656 62 C 249.292969 62.4375 249.367188 62.949219 249.511719 63.386719 C 242.070312 44.277344 232.292969 24.65625 232.292969 24.65625 Z M 232.367188 24.726562 " fill-opacity="1" fill-rule="nonzero"/><g clip-path="url(#5a2d9f015d)"><path fill="#35378f" d="M 152.769531 29.394531 C 155.324219 26.84375 158.167969 24.800781 161.304688 23.269531 C 161.597656 23.121094 161.890625 23.195312 162.035156 23.5625 C 162.109375 23.78125 162.035156 24.070312 161.816406 24.21875 C 159.042969 25.96875 156.636719 28.300781 154.445312 31 C 152.402344 33.480469 150.652344 36.324219 149.046875 39.390625 C 148.246094 40.921875 147.515625 42.527344 146.785156 44.203125 C 145.765625 46.609375 144.816406 49.089844 143.941406 51.714844 C 142.628906 55.65625 141.605469 59.8125 140.730469 63.972656 C 139.855469 68.128906 139.199219 72.359375 138.761719 76.515625 C 138.542969 78.195312 138.394531 79.871094 138.25 81.550781 C 138.105469 83.300781 137.957031 84.980469 137.886719 86.65625 C 137.519531 92.347656 137.519531 97.597656 138.03125 101.972656 C 138.03125 102.265625 137.886719 102.484375 137.59375 102.558594 C 137.300781 102.558594 137.082031 102.410156 137.007812 102.121094 C 136.0625 97.671875 135.332031 92.417969 135.113281 86.582031 C 135.039062 84.832031 135.039062 83.082031 135.039062 81.332031 C 135.039062 79.582031 135.113281 77.832031 135.257812 76.078125 C 135.625 71.847656 136.207031 67.472656 137.082031 63.167969 C 137.886719 58.792969 139.050781 54.5625 140.4375 50.476562 C 141.3125 47.777344 142.410156 45.152344 143.574219 42.671875 C 144.378906 40.921875 145.328125 39.316406 146.273438 37.710938 C 148.171875 34.648438 150.359375 31.804688 152.769531 29.394531 Z M 225.875 20.789062 C 227.40625 22.757812 228.9375 24.945312 230.324219 27.207031 C 231.054688 28.375 231.785156 29.542969 232.515625 30.78125 C 233.535156 32.53125 234.628906 34.355469 235.578125 36.253906 C 237.109375 39.097656 238.496094 42.089844 239.808594 45.078125 C 241.121094 48.140625 242.363281 51.207031 243.457031 54.195312 C 243.894531 55.4375 244.40625 56.675781 244.84375 57.917969 C 245.28125 59.15625 245.71875 60.398438 246.15625 61.636719 C 247.617188 65.792969 248.710938 69.585938 249.511719 73.015625 C 249.585938 73.308594 249.804688 73.453125 250.097656 73.453125 C 250.390625 73.378906 250.535156 73.160156 250.535156 72.871094 C 250.390625 70.316406 250.097656 67.546875 249.585938 64.554688 C 249.148438 61.929688 248.566406 59.15625 247.835938 56.3125 C 247.398438 54.707031 246.886719 53.101562 246.375 51.496094 C 245.136719 47.851562 243.675781 44.203125 242 40.554688 C 240.539062 37.492188 239.007812 34.503906 237.257812 31.585938 C 236.089844 29.613281 234.847656 27.71875 233.460938 25.96875 C 231.710938 23.632812 229.8125 21.519531 227.84375 19.621094 C 225.726562 17.578125 223.539062 15.828125 221.277344 14.296875 C 221.058594 14.152344 220.765625 14.152344 220.621094 14.371094 C 220.328125 14.515625 220.402344 14.878906 220.621094 15.027344 C 222.519531 16.703125 224.195312 18.671875 225.875 20.789062 Z M 226.386719 191.328125 C 252.285156 191.839844 275.632812 200.082031 286.285156 211.023438 C 293.363281 218.320312 290.664062 224.957031 288.035156 228.601562 C 288.035156 228.75 288.035156 228.820312 287.964844 228.894531 C 286.648438 230.71875 284.679688 232.6875 282.34375 234.367188 C 280.230469 235.898438 277.820312 237.210938 275.339844 238.085938 C 271.621094 239.398438 267.386719 240.347656 262.863281 240.929688 C 258.851562 241.441406 254.621094 241.660156 250.167969 241.734375 C 244.042969 241.734375 237.546875 241.367188 231.199219 240.785156 C 224.707031 240.203125 218.359375 239.253906 212.375 238.230469 C 208.800781 237.574219 205.664062 236.917969 202.890625 236.042969 C 196.910156 234.21875 192.605469 232.105469 189.46875 229.917969 C 183.484375 225.757812 181.660156 221.453125 181.148438 218.828125 C 175.167969 200.300781 204.351562 190.820312 226.386719 191.328125 Z M 237.109375 213.359375 C 218.140625 211.316406 203.039062 213.648438 193.84375 216.785156 C 190.855469 217.878906 188.957031 219.121094 187.933594 220.359375 C 187.207031 221.234375 186.839844 222.402344 186.988281 223.496094 C 187.132812 224.664062 187.714844 225.6875 188.664062 226.34375 C 189.320312 226.851562 190.050781 227.289062 190.78125 227.800781 C 193.917969 229.625 198.148438 231.300781 203.769531 232.761719 C 206.46875 233.417969 209.53125 234.074219 212.960938 234.585938 C 216.316406 235.167969 242.363281 238.886719 261.332031 237.722656 C 271.839844 237.136719 279.28125 233.78125 282.636719 231.886719 C 283.074219 231.59375 283.367188 231.082031 283.367188 230.574219 C 283.367188 230.0625 283.148438 229.550781 282.78125 229.1875 C 277.164062 225.027344 262.644531 216.128906 237.109375 213.359375 Z M 321.597656 259.019531 C 321.378906 258.65625 320.941406 258.582031 320.574219 258.800781 C 309.046875 265.730469 293.945312 269.816406 277.457031 271.710938 C 262.9375 273.316406 247.398438 273.246094 232.148438 271.785156 C 216.460938 270.253906 201.140625 267.335938 187.714844 263.324219 C 170.351562 258.074219 156.199219 251.144531 148.976562 242.898438 C 141.023438 233.929688 137.8125 225.175781 136.9375 217.371094 C 136.28125 211.171875 136.71875 206.429688 138.542969 201.90625 C 140.4375 197.382812 144.523438 192.351562 148.171875 190.382812 C 149.921875 189.433594 151.527344 188.847656 152.769531 188.484375 C 154.8125 188.121094 156.925781 187.683594 159.1875 187.246094 C 161.667969 186.734375 164.296875 186.222656 166.921875 185.640625 C 171.082031 184.691406 175.386719 183.597656 179.691406 182.503906 C 183.921875 181.410156 188.226562 180.316406 192.457031 179.222656 C 195.667969 178.34375 198.878906 177.46875 201.945312 176.59375 C 203.328125 176.15625 204.644531 175.792969 205.957031 175.355469 C 209.457031 174.1875 212.816406 173.019531 215.953125 171.925781 C 219.601562 170.613281 222.882812 169.375 225.875 168.207031 C 226.238281 168.132812 226.457031 167.695312 226.386719 167.332031 C 226.3125 166.964844 225.875 166.746094 225.507812 166.820312 C 220.984375 167.695312 215.734375 168.644531 209.894531 169.738281 C 208.21875 170.03125 206.46875 170.394531 204.714844 170.757812 C 203.039062 171.125 201.285156 171.488281 199.535156 171.925781 C 195.378906 172.875 191.074219 173.96875 186.769531 175.0625 C 182.464844 176.15625 178.160156 177.25 174 178.34375 C 171.226562 179.074219 168.527344 179.804688 165.828125 180.605469 C 164.003906 181.117188 162.179688 181.699219 160.429688 182.210938 C 159.042969 182.648438 157.65625 183.085938 156.34375 183.523438 C 155.25 183.890625 154.226562 184.253906 153.207031 184.617188 C 148.828125 185.714844 140.585938 186.441406 132.996094 179.441406 C 128.621094 175.210938 123.292969 168.644531 118.625 159.089844 C 112.496094 146.542969 107.535156 128.816406 107.167969 104.308594 C 106.660156 82.5 111.472656 64.699219 118.113281 50.695312 C 131.828125 21.738281 153.351562 8.605469 153.351562 8.605469 C 153.71875 8.386719 153.789062 7.949219 153.644531 7.585938 C 153.425781 7.222656 152.988281 7.148438 152.621094 7.292969 C 152.621094 7.292969 130.003906 19.988281 115.121094 49.164062 C 110.523438 58.207031 106.660156 68.785156 104.46875 81.039062 C 103.519531 81.40625 102.5 81.988281 101.914062 82.28125 C 100.96875 82.71875 99.070312 83.15625 96.808594 83.59375 C 96.734375 83.59375 96.734375 83.59375 96.664062 83.59375 C 93.453125 83.882812 89.804688 84.539062 86.300781 84.613281 C 84.625 84.613281 83.019531 84.539062 81.488281 84.25 L 72.003906 80.308594 L 70.835938 79.800781 C 68.28125 78.632812 65.4375 77.320312 62.445312 75.933594 C 58.285156 73.964844 53.910156 71.847656 49.96875 69.878906 C 44.933594 67.253906 40.628906 64.773438 38.585938 62.949219 C 38.003906 61.34375 37.492188 59.082031 37.054688 56.457031 C 36.472656 53.101562 36.105469 49.238281 36.035156 45.515625 C 35.886719 40.484375 36.253906 35.886719 37.636719 33.699219 C 37.785156 33.480469 37.710938 33.1875 37.566406 33.042969 C 37.347656 32.898438 37.054688 32.96875 36.910156 33.117188 C 35.230469 35.230469 34.136719 40.046875 33.773438 45.445312 C 33.699219 49.164062 33.773438 53.25 34.136719 56.75 C 34.429688 59.886719 35.085938 62.65625 35.742188 64.480469 C 35.816406 64.699219 35.960938 64.847656 36.105469 65.066406 C 36.980469 66.011719 38.441406 67.109375 40.265625 68.347656 C 40.339844 68.640625 40.410156 68.929688 40.484375 69.078125 C 40.847656 70.609375 84.988281 94.679688 92.796875 96.429688 C 98.707031 97.742188 101.257812 105.839844 102.792969 111.457031 C 103.738281 133.339844 108.335938 149.605469 114.027344 161.421875 C 122.199219 178.566406 132.558594 186.734375 137.375 189.796875 C 134.820312 194.464844 130.222656 204.96875 131.609375 217.953125 C 132.558594 226.632812 136.132812 236.480469 144.890625 246.402344 C 152.695312 255.15625 167.652344 262.8125 186.257812 268.210938 C 200.046875 272.148438 215.734375 274.921875 231.785156 276.089844 C 247.324219 277.183594 263.15625 276.820312 277.894531 274.703125 C 294.675781 272.222656 309.851562 267.480469 321.378906 260.042969 C 321.742188 259.824219 321.816406 259.386719 321.597656 259.019531 Z M 193.042969 308.839844 C 191.4375 308.550781 189.832031 308.257812 188.300781 307.964844 C 184.433594 307.234375 180.710938 306.359375 176.992188 305.121094 C 176.699219 305.046875 173.707031 303.878906 173.488281 304.246094 C 173.34375 304.390625 174.511719 305.195312 174.582031 305.195312 C 175.898438 306.140625 177.285156 306.945312 178.597656 307.746094 C 184.433594 311.246094 190.34375 315.113281 196.691406 317.449219 C 200.777344 318.980469 204.933594 320 209.019531 321.460938 C 217.410156 324.304688 225.949219 327.367188 234.484375 323.066406 C 237.546875 321.75 239.882812 319.273438 242.289062 316.863281 C 244.769531 315.84375 247.25 313.875 249.660156 312.851562 L 256.078125 309.714844 C 246.523438 312.195312 233.609375 312.269531 227.261719 312.34375 C 220.621094 312.488281 204.425781 310.371094 193.042969 308.839844 Z M 252.285156 341.15625 C 251.921875 341.082031 251.484375 341.300781 251.410156 341.664062 C 247.6875 353.992188 235.871094 358.953125 221.789062 360.265625 C 218.140625 360.558594 214.347656 360.628906 210.40625 360.558594 C 206.613281 360.484375 202.820312 360.191406 199.023438 359.828125 C 186.476562 358.515625 174.144531 355.816406 165.246094 353.261719 C 159.40625 351.585938 153.351562 349.398438 147.660156 346.550781 C 142.042969 343.78125 136.863281 340.277344 132.703125 335.902344 C 127.304688 330.359375 123.21875 324.742188 120.738281 318.6875 C 118.257812 312.5625 117.527344 305.921875 119.0625 298.191406 C 121.105469 287.324219 121.980469 280.832031 122.273438 276.964844 C 122.273438 276.527344 122.34375 276.089844 122.34375 275.652344 L 122.417969 275.652344 C 122.855469 275.871094 123.292969 276.089844 123.730469 276.308594 C 125.628906 277.183594 129.933594 278.933594 131.902344 279.589844 C 132.046875 279.664062 133.507812 280.175781 133.582031 280.027344 C 133.726562 279.882812 133.289062 279.445312 133.214844 279.371094 C 132.632812 278.789062 131.976562 278.277344 131.246094 277.914062 C 130.882812 277.695312 130.515625 277.476562 130.152344 277.257812 C 128.691406 276.089844 127.304688 274.847656 125.992188 273.535156 C 123.511719 271.128906 121.324219 268.503906 119.28125 265.730469 C 118.257812 264.34375 117.308594 262.960938 116.363281 261.5 C 114.171875 258.144531 112.277344 254.644531 110.671875 250.925781 C 109.285156 247.789062 108.191406 244.503906 107.167969 241.222656 C 106.511719 239.035156 106 236.773438 105.492188 234.511719 C 104.90625 231.667969 104.324219 228.820312 103.957031 225.976562 C 103.59375 223.058594 103.300781 220.214844 103.230469 217.296875 C 103.230469 217.003906 103.011719 216.785156 102.792969 216.785156 C 102.5 216.785156 102.28125 217.003906 102.28125 217.222656 C 101.914062 220.140625 101.695312 223.132812 101.695312 226.125 C 101.695312 229.113281 101.914062 232.105469 102.28125 235.09375 C 102.574219 237.503906 103.082031 239.835938 103.667969 242.171875 C 104.542969 245.671875 105.78125 249.101562 107.167969 252.382812 C 108.847656 256.25 110.890625 260.042969 113.296875 263.46875 C 114.320312 264.929688 115.414062 266.386719 116.652344 267.773438 C 117.894531 269.378906 119.28125 270.765625 120.738281 272.078125 C 120.738281 272.441406 120.738281 273.097656 120.667969 274.191406 C 120.375 277.328125 119.28125 284.039062 115.707031 297.460938 C 113.515625 305.921875 113.882812 313.4375 116.363281 320.367188 C 118.769531 327.148438 123.074219 333.347656 128.839844 339.550781 C 132.484375 343.414062 136.863281 346.769531 141.679688 349.46875 C 148.609375 353.480469 156.417969 356.398438 163.785156 358.515625 C 172.90625 361.066406 192.167969 363.914062 205.152344 364.933594 C 213.253906 365.589844 221.421875 365.515625 228.867188 364.421875 C 244.042969 362.160156 252.210938 354.867188 252.796875 342.03125 C 252.796875 341.59375 252.652344 341.226562 252.285156 341.15625 Z M 252.285156 341.15625 " fill-opacity="1" fill-rule="nonzero"/></g></svg>